<svg xmlns="http://www.w3.org/2000/svg" id="Capa_2" data-name="Capa 2" viewBox="0 0 152.24 111.09"><defs><style>      .cls-1 {        fill: #464c51;      }    </style></defs><g id="Capa_1-2" data-name="Capa 1"><g id="_2z7KEB" data-name="2z7KEB"><g><path class="cls-1" d="m152.24,110.48c-1.96.02-3.92.04-5.87.07-.56,0-.8-.23-.8-.8,0-4.61-.03-9.21.04-13.82.02-1.04.25-2.07.1-3.16-.54.26-.41.76-.53,1.12-1.79,5.25-3.56,10.5-5.31,15.76-.22.67-.57.9-1.27.91-2.91.05-2.94.08-3.82-2.66-1.55-4.82-3.37-9.55-4.76-14.42-.06-.2-.05-.49-.4-.59,0,3.98,0,7.94,0,11.91,0,1.62-.02,3.23,0,4.85.01.66-.25.92-.91.91-1.55-.03-3.1-.06-4.64.01-.96.04-1.22-.31-1.22-1.24.03-7.29.02-14.58.02-21.86,0-1.79.03-3.58-.01-5.36-.02-.77.28-1.02,1.03-1.01,1.86.04,3.71.04,5.57,0,.78-.02,1.15.29,1.43,1.02,2.12,5.56,4.28,11.11,6.43,16.66.06.16.16.3.34.64.69-1.78,1.34-3.42,1.97-5.05,1.59-4.15,3.18-8.31,4.78-12.46.17-.43.4-.79.96-.79,2.3.03,4.6.05,6.91.07v29.3Z"></path><path class="cls-1" d="m50.88,111.09c-1.73-.33-3.37-.86-4.78-1.98-.91-.72-1.52-1.66-2.12-2.62-.26-.43-.23-.78.21-1.15,1.07-.91,2.07-1.9,3.11-2.85,1.06-.97,1.18-.94,2.06.2.84,1.08,1.91,1.87,3.25,2.24,1.28.35,2.93-.45,3.41-1.64.45-1.12.09-2.1-.96-2.71-1.28-.75-2.72-1.13-4.07-1.71-3.44-1.47-5.71-3.83-6.45-7.63-.93-4.82,2.08-9.46,6.92-10.32,3.7-.66,7.23-.19,10.54,1.69.57.32.81.63.55,1.31-.64,1.66-1.24,3.34-1.82,5.02-.21.62-.55.62-1.01.35-.86-.51-1.74-.95-2.66-1.32-1.41-.57-2.85-.74-4.32-.33-.65.18-1.24.47-1.35,1.24-.12.85.13,1.56.86,2.06.77.53,1.65.83,2.53,1.11,1.8.57,3.54,1.26,5.09,2.4,1.81,1.33,2.86,3.09,3.37,5.23.51,2.17.38,4.3-.54,6.32-1.33,2.93-3.83,4.35-6.87,4.96-.2.04-.4.09-.6.14h-4.34Z"></path><path class="cls-1" d="m106,111.09c-5.98-1.1-10.25-5.94-11.04-11.98-.45-3.41-.38-6.76,1.05-9.94,2.05-4.55,5.4-7.73,10.4-8.59,3.4-.58,6.77.02,9.83,1.8.36.21.58.39.4.88-.65,1.77-1.25,3.55-1.86,5.33-.24.72-.71.51-1.15.29-1.6-.78-3.28-1.1-5.08-1.04-2.44.07-4.41,1.48-5.33,4.1-1.12,3.2-1.04,6.38.77,9.3,1.54,2.48,4,3.62,7.41,2.64,1.2-.34,2.31-.88,3.33-1.57.59-.4.89-.37,1.05.4.32,1.57.67,3.14,1.09,4.69.15.58.02.85-.44,1.19-1.77,1.29-3.72,2.15-5.89,2.52h-4.54Z"></path><path class="cls-1" d="m40.81,51.53c-.95.53-1.78.63-2.58.8-.62.13-1.06,0-1.06-.81.02-4.5.02-9.01,0-13.51,0-.62.25-.86.86-.85,1.13.02,2.27.02,3.41,0,.63-.01.86.27.84.87-.08,1.74.15,3.49-.18,5.24-.23,1.21.37,2.19,1.39,2.54.91.31,1.91-.16,2.51-1.26,1.44-2.61,3.3-4.87,5.48-6.9.38-.35.78-.5,1.29-.5,5.99.01,11.97.02,17.96,0,.78,0,1.1.21,1.09,1.05-.02,10.76-.02,21.52,0,32.29,0,.78-.22,1.09-1.05,1.09-10.84-.02-21.67-.02-32.51,0-.79,0-1.09-.24-1.08-1.06.03-4.74.02-9.49,0-14.23,0-.55.13-1,.56-1.37,1.09-.95,2-2.05,3.08-3.37Z"></path><path class="cls-1" d="m59.27,17.87c.28.86-.39,1.46-.75,1.94-1.01,1.32-1.03,2.85-1.13,4.33-.12,1.74-.57,3.45-.48,5.21.04.79-.61,1.26-1.17,1.72-1.16.96-2.33,1.91-3.45,2.91-.46.42-.91.67-1.55.64-.96-.04-1.93-.02-2.89-.01-.52,0-.77-.13-.59-.73.52-1.7.98-3.42,1.52-5.11.11-.33.45-.59.69-.88.44-.56.48-1.17.02-1.68-.49-.54-1.16-.66-1.76-.17-.57.46-.74,1.14-.27,1.74.4.51.38.96.21,1.52-.44,1.47-.85,2.96-1.23,4.45-.16.64-.49.91-1.16.89-.7-.02-1.39.05-1.67-.83-.19-.59-.39-1.17-.67-1.72-.23-.46-.01-.78.16-1.15.83-1.75,1.82-3.43,2.43-5.28-.45.84-.9,1.69-1.35,2.53-.1-.05-.2-.1-.29-.16.7-1.53,1.4-3.06,2.1-4.59-.02,0-.04-.02-.05-.03-1.1,2.25-2.22,4.49-3.28,6.76-.34.74-.9,1.33-1.25,2.05-.03.07-.19.16-.21.15-.1-.08-.23-.18-.25-.29-.07-.37.16-.65.31-.95,1.54-3.1,3.1-6.19,4.63-9.3.7-1.43,1.34-2.9,1.94-4.39-1.2,2.41-2.24,4.9-3.51,7.28-1.06,2-2.11,4-3.21,5.97-.44.79-.59,1.5-.05,2.29.17.25.22.57.35.85.29.59.08.81-.54.8-.96-.01-1.93-.02-2.89,0-.56,0-.84-.21-.81-.79.01-.21,0-.41,0-.62,0-10.59,0-21.18,0-31.77,0-1.42,0-1.43,1.41-1.43,4.33,0,8.67,0,13,0,1.31,0,1.39.13.91,1.35-.29.73-.58,1.46-.8,2.23.42-.97.87-1.93,1.24-2.91.19-.5.47-.67.99-.67,3.54.01,7.09.03,10.63,0,.88,0,1.08.26.77,1.08-1.09,2.81-2.14,5.63-3.21,8.44-.51,1.34-1,2.69-1.51,4.04-.44,1.14-.6,1.22-1.58.49-1.54-1.15-3.25-1.72-5.19-1.61.73.16,1.5.22,2.19.49,1.53.59,3.01,1.3,3.85,2.86.22.41.48.27.64-.11,1.85-4.42,3.66-8.85,5.57-13.24,1.24-2.85.35-2.41,3.46-2.42,2.58,0,2.24-.35,2.24,2.23.01,10.31,0,20.63,0,30.94,0,1.41,0,1.42-1.42,1.42-4.64,0-9.29,0-13.93,0-.29,0-.73.14-.84-.17-.15-.41.34-.51.6-.71.14-.1.27-.22.43-.28,2.17-.94,2.92-2.59,2.9-4.92-.02-2.42.43-4.84.35-7.28-.04-1.14-.1-2.3-.61-3.39Z"></path><path class="cls-1" d="m17.23,37.15c5.3,0,10.6.03,15.89-.02,1.05,0,1.35.3,1.33,1.34-.06,3.75-.02,7.5-.02,11.24,0,1.19-.12,1.24-1.23.74-1.46-.65-2.71-1.62-3.9-2.64-1.27-1.09-2.46-2.29-3.68-3.45-.36-.34-.75-.58-1.23-.72-.43-.12-1.01-.4-1.23-.03-.29.49-.74,1.01-.54,1.72.54,1.91.59,3.9.85,5.85.36,2.64.65,5.29.97,7.93.3,2.51.6,5.02.9,7.53.16,1.32.22,2.67.49,3.97.18.89-.22.92-.85.92-1.89,0-3.78,0-5.68,0-5.99,0-11.97-.02-17.96.02-1.02,0-1.36-.25-1.35-1.32.04-10.59.04-21.18,0-31.77,0-1.03.28-1.35,1.33-1.34,5.3.05,10.6.02,15.89.02Z"></path><path class="cls-1" d="m28.09,90.17c-.8-.31-1.16-1.14-1.86-1.57.02.07.01.14.05.17,1.31,1.14,2.14,2.49,2.29,4.31.22,2.62-.21,4.83-1.9,7.07-3.03,4.01-7.2,6.21-11.48,8.37-.75.38-1.64.38-2.49.38-2.03,0-4.06-.06-6.09.02-1.16.05-1.81-.5-2.23-1.45-.94-2.15-.97-4.36-.04-6.49,1.79-4.11,4.59-7.28,9.09-8.35,3.17-.76,6.47-.62,9.73-.56.56,0,.82.37.96.9.41,1.63.22,3.18-.49,4.7-.6,1.29-1.55,2.33-2.4,3.44-.18.24-.54.46-.36.78.19.35.47-.03.71-.05.73-.06-.05.47.33.64,2.26-1.82,4.8-3.38,5.45-6.66.33-1.65.79-3.3-.34-4.66-1-1.2-2.02-2.28-3.82-2.8-4.81-1.41-8.73.33-12.58,2.72-2.55,1.58-4.59,3.62-6.29,6.18-1.64,2.46-2.33,5.02-2.51,7.84-.06.98.27,1.9.66,2.77.32.7.27,1.05-.64,1.05-1.82,0-1.82.04-1.82-1.75,0-10.48,0-20.97,0-31.45,0-1.41,0-1.41,1.42-1.41,7.81,0,15.61.01,23.42-.02,1,0,1.46.11,1.58,1.33.48,4.79,1.15,9.55,1.74,14.33,0,.06-.05.12-.09.23Z"></path><path class="cls-1" d="m79.89,104.77c-1.03,0-2.07.06-3.09-.02-.9-.07-1.27.31-1.51,1.13-.37,1.28-.9,2.51-1.29,3.79-.21.69-.59.9-1.28.89-1.86-.03-3.72-.05-5.57,0-1.01.03-1.06-.36-.76-1.15,1.26-3.44,2.49-6.88,3.74-10.32,1.54-4.24,3.1-8.48,4.64-12.72.55-1.51,1.12-3.02,1.64-4.53.19-.55.51-.74,1.07-.73,1.62.02,3.23.02,4.85,0,.61,0,.92.22,1.13.8,1.18,3.28,2.41,6.55,3.61,9.83,2.1,5.75,4.2,11.5,6.29,17.26.08.23.15.46.24.68.28.68.03.91-.68.9-1.96-.03-3.92-.03-5.88,0-.62.01-.92-.23-1.11-.8-.45-1.37-.98-2.7-1.4-4.08-.21-.67-.53-.95-1.24-.92-1.13.05-2.27.01-3.4.01Zm.03-13.61c-.85,2.7-1.33,5.33-2.26,7.83-.18.48-.06.7.49.69,1.17-.02,2.34-.01,3.5,0,.53,0,.75-.12.56-.73-.77-2.54-1.51-5.09-2.29-7.78Z"></path><path class="cls-1" d="m18.27,108.66c1.27-1.02,2.44-2.09,3.74-2.82,1.87-1.05,2.01-.83,3.04-1.97,2.55-2.82,4.3-5.97,4.11-9.96-.07-1.49.32-2.99.36-4.49.07-2.57-.21-5.13-.34-7.69-.12-2.29-.42-4.56-.74-6.83-.07-.53.16-.6.55-.61,1.58,0,3.16,0,4.74,0,.46,0,.7.21.7.68,0,.24,0,.48,0,.72,0,10.58,0,21.17,0,31.75,0,1.43,0,1.44-1.4,1.44-4.5,0-9.01,0-13.51,0-.37,0-.75.1-1.25-.23Z"></path><path class="cls-1" d="m34.43,63.32c0,2.41-.02,4.81.01,7.22,0,.75-.24,1.04-1.01,1.02-1.55-.04-3.09-.03-4.64,0-.67.01-.98-.25-1.11-.91-.78-3.81-1.68-7.61-2.39-11.43-.48-2.58-.71-5.21-1.05-7.81-.07-.5.12-.57.59-.46,1.17.28,1.85,1.26,2.79,1.86,1.84,1.18,3.65,2.45,6,2.31.75-.05.81.42.81.99,0,2.41,0,4.81,0,7.22Z"></path><path class="cls-1" d="m34.13,53.22c-.29.47-.61.42-.83.35-2.25-.63-4.47-1.35-6.29-2.88-1.3-1.1-2.02-2.73-3.34-3.85-.7-.59-.28-1.65.61-1.96.68-.23,1.18.08,1.14.74-.06,1.09.37,1.99,1.07,2.66,1.02.96,1.88,2.06,3.29,2.65,1.49.62,2.51,2.15,4.34,2.3Z"></path><path class="cls-1" d="m45.36,41.2c.02-1.36.5-2.57.96-3.79.1-.27,1.8-.38,2.05-.18.27.21.12.48-.03.62-1.06,1.05-2,2.2-2.98,3.35Z"></path></g></g></g></svg>