<svg xmlns="http://www.w3.org/2000/svg" id="Capa_2" data-name="Capa 2" viewBox="0 0 116.84 111.78"><defs><style>      .cls-1 {        fill: #464c51;      }    </style></defs><g id="Capa_1-2" data-name="Capa 1"><g id="f2voCe"><g><path class="cls-1" d="m10.92,22.36c0,5.06-.08,10.12.02,15.18.1,4.66,1.04,9.17,3.47,13.23,3.24,5.43,8.07,8.49,14.3,9.46,3.75.58,7.48.53,11.16-.34,7.07-1.67,11.77-6.06,14.27-12.84.81-2.18,1.24-4.45,1.52-6.75.11-.86.23-1.72.23-2.59,0-8.71,0-17.42-.02-26.12,0-.52.11-.72.66-.69.94.04,1.89.02,2.84.04.77.01.77.02.76.82-.01.75-.03,1.51-.03,2.26,0,7.7.07,15.41-.03,23.11-.07,5.53-1.29,10.84-4.16,15.64-3.44,5.77-8.52,9.32-15.01,10.94-4.32,1.08-8.68,1.11-13.04.41-3.2-.52-6.23-1.61-9.01-3.31-4.55-2.78-7.66-6.75-9.63-11.67-1.29-3.23-1.94-6.6-2.25-10.06-.23-2.57-.2-5.13-.2-7.69,0-8.28,0-16.57,0-24.85,0-.78,0-.78.8-.78.93,0,1.86.05,2.78.01.51-.02.59.16.59.62-.02,5.33,0,10.66-.01,15.99Z"></path><path class="cls-1" d="m62.69,30.23c0-3.42,0-6.84-.01-10.25,0-.36.07-.46.43-.46,1.16.02,2.32.02,3.48,0,.29,0,.4.06.4.38-.05,6.64.28,13.29-.16,19.92-.5,7.48-2.67,14.44-7.61,20.3-4.89,5.81-11.2,9.11-18.61,10.5-2.75.51-5.51.73-8.29.65-6.72-.19-13.07-1.72-18.73-5.49-5.41-3.6-9.04-8.59-11.23-14.68C.5,45.95.01,40.59.01,35.16c0-4.17,0-8.34,0-12.51,0-.25.05-.35.31-.35,1.16,0,2.32,0,3.48,0,.44,0,.3.32.3.54.01,3.8.01,7.61.02,11.41,0,1.93-.07,3.86.09,5.79.5,6.05,2.08,11.73,5.84,16.63,4.3,5.6,9.99,8.95,16.93,10.08,5.76.94,11.51.86,17.11-.99,8.63-2.85,14.25-8.7,16.99-17.34,1.12-3.54,1.63-7.17,1.61-10.88-.01-2.43,0-4.87,0-7.3h.01Z"></path><path class="cls-1" d="m18.22,23.92c0,4.86-.09,9.73.03,14.59.08,3.4.91,6.66,3,9.44,2.33,3.11,5.47,4.86,9.34,5.27,2.25.23,4.52.29,6.75-.17,5.94-1.23,9.78-5.3,10.89-11.4.33-1.81.48-3.63.47-5.47-.01-4.34,0-8.69-.03-13.03,0-.36.11-.5.45-.5,1.18,0,2.35,0,3.53.02.26,0,.4.08.39.41,0,4.05.04,8.11,0,12.16-.03,3.36-.24,6.71-1.38,9.93-2.29,6.49-6.76,10.6-13.54,11.95-4.75.95-9.45.66-13.9-1.49-4.58-2.2-7.44-5.89-9.01-10.64-.94-2.83-1.28-5.75-1.28-8.72-.01-9.03,0-18.07,0-27.1q0-.77.78-.77c.97,0,1.93.02,2.9,0,.46-.01.59.13.59.58-.02,3.73-.01,7.45-.01,11.18,0,1.25,0,2.51,0,3.76.01,0,.03,0,.04,0Z"></path><path class="cls-1" d="m45.67,26.69c0,3.86.05,7.72-.01,11.58-.05,3.59-1.27,6.73-3.98,9.17-1.81,1.63-3.96,2.52-6.4,2.82-2.72.33-5.32.01-7.75-1.24-3.11-1.6-4.92-4.23-5.81-7.56-.43-1.59-.6-3.21-.59-4.86.02-6.56.02-13.13,0-19.69,0-.5.1-.66.63-.64,1.06.05,2.12.02,3.18,0,.32,0,.49.04.49.43-.02,6.2-.02,12.39-.02,18.59,0,1.85-.07,3.7.47,5.51.93,3.13,3.33,5.05,6.58,5.26,1.82.12,3.59-.04,5.22-.92,2.17-1.17,3.15-3.14,3.61-5.45.17-.85.21-1.73.21-2.59,0-7.33-.02-14.67-.04-22,0-1.07,0-1.06,1.06-1.07.94,0,1.89.06,2.83-.06.27-.04.33.08.33.32,0,.69,0,1.39,0,2.08,0,3.44,0,6.87,0,10.31Z"></path><path class="cls-1" d="m17.52,93.4c0-2.76.01-5.52-.01-8.28,0-.46.17-.57.57-.57,1.43.02,2.86.05,4.28.04.42,0,.46.21.46.55,0,4.58,0,9.15,0,13.73,0,.95,0,1.89-.09,2.84-.15,1.72-.42,3.41-1.28,4.95-1.3,2.34-3.31,3.76-5.85,4.48-2.9.82-5.79.81-8.67-.07-3.87-1.18-6.01-3.85-6.67-7.79-.22-1.3-.26-2.61-.26-3.92,0-4.73,0-9.46-.01-14.19,0-.52.16-.65.67-.63,1.31.05,2.62.06,3.94.05.5,0,.65.15.64.66-.02,5.19,0,10.39,0,15.58,0,.97.1,1.91.43,2.84.7,2.01,2.12,3.11,4.16,3.48,1.02.18,2.04.22,3.05,0,3.09-.66,4.49-2.47,4.61-5.76.1-2.66.02-5.33.02-7.99,0,0,0,0,0,0Z"></path><path class="cls-1" d="m38.84,31.91c0,2.08.08,4.17-.02,6.25-.11,2.09-1.01,3.81-3.01,4.73-2.82,1.3-6.88.19-7.61-4.01-.07-.42-.12-.84-.12-1.27,0-12.34,0-24.68-.01-37.01,0-.44.08-.61.56-.59.92.04,1.85.02,2.78,0,.32,0,.45.06.44.41-.04.89-.05,1.77-.05,2.66,0,11.26,0,22.51,0,33.77,0,.68.07,1.34.34,1.98.26.61.76.77,1.36.77.59,0,1.06-.19,1.32-.75.18-.38.23-.77.23-1.18,0-4,0-7.99-.02-11.99,0-.49.13-.62.61-.6.89.04,1.78.03,2.66,0,.44-.01.61.09.6.57-.03,2.08-.01,4.17-.01,6.26-.01,0-.03,0-.04,0Z"></path><path class="cls-1" d="m29.92,95.38c.28-.11.32-.31.42-.46,2.27-3.36,7.88-3.87,10.58-.94,1.15,1.24,1.58,2.78,1.75,4.44.42,4.07.14,8.14.22,12.21,0,.5-.17.66-.68.65-1.35-.04-2.7-.04-4.05-.02-.32,0-.41-.11-.41-.39,0-.48.02-.97.02-1.45,0-2.92.01-5.83.01-8.75,0-.42-.03-.85-.08-1.27-.31-2.65-2.1-3.76-4.62-3.27-1.33.26-2.16,1.15-2.68,2.34-.33.76-.5,1.57-.5,2.42.02,3.26,0,6.53.02,9.79,0,.49-.14.61-.62.6-1.33-.03-2.66-.02-4,0-.38,0-.49-.1-.49-.48.01-5.89.01-11.78,0-17.67,0-.41.13-.51.53-.53,1.39-.05,2.78-.01,4.17,0,.36,0,.4.18.4.47-.01.76,0,1.52,0,2.32Z"></path><path class="cls-1" d="m96.32,95.35c.2-.25.39-.51.59-.76,2.44-3.1,7.69-3.42,10.34-.61,1.12,1.19,1.55,2.68,1.8,4.25.12.75.11,1.5.11,2.25,0,3.4-.01,6.79,0,10.19,0,.48-.13.62-.61.6-1.29-.03-2.59-.03-3.88,0-.47.01-.61-.11-.61-.6.02-3.51.02-7.03,0-10.54,0-1.05-.19-2.09-.89-2.93-1.6-1.92-4.92-1.5-6.2.76-.56.98-.78,2.05-.77,3.17.01,3.13.01,6.25.05,9.38,0,.57-.13.77-.74.74-1.23-.05-2.47-.04-3.7,0-.46.01-.62-.12-.6-.58.03-.85.01-1.7.01-2.55,0-5.02,0-10.04-.03-15.05,0-.33.1-.46.42-.46,1.43,0,2.86-.02,4.28-.03.32,0,.37.19.38.45.03.75-.05,1.5-.12,2.25.05.02.1.05.15.07Z"></path><path class="cls-1" d="m89.66,101.85c-.02,5.39-3.46,9.57-9.19,9.85-6.5.32-10.29-4.27-10.36-9.65-.07-5.72,3.97-9.9,9.61-9.97,5.71-.07,9.86,4.01,9.94,9.78Zm-5.04.14c0-.3.02-.56,0-.81-.14-1.33-.35-2.66-1.27-3.71-1.28-1.46-2.96-1.84-4.79-1.42-1.73.39-2.65,1.67-3.08,3.29-.44,1.71-.4,3.45,0,5.16.47,1.94,1.97,3.24,3.84,3.43,1.98.2,3.74-.69,4.56-2.4.54-1.12.83-2.32.74-3.54Z"></path><path class="cls-1" d="m54.13,104.94c.54,0,1.08.02,1.62,0,.33-.01.5.09.56.42.3,1.62,1.38,2.45,2.91,2.74,1.12.22,2.27.23,3.39-.07,1.2-.32,1.85-1.48,1.43-2.53-.29-.72-.92-1-1.62-1.16-1.46-.35-2.95-.56-4.43-.82-.82-.14-1.61-.38-2.39-.68-3.42-1.3-3.9-5.08-2.46-7.5,1-1.67,2.54-2.55,4.38-2.95,2.76-.6,5.46-.42,7.97.99,1.85,1.04,2.77,2.73,3.06,4.79.04.26-.04.35-.29.37-1.06.06-2.12.13-3.18.18-.3.02-.58-.01-.68-.39-.57-2.19-2.27-2.69-4.21-2.79-.85-.04-1.7.01-2.44.55-1.06.78-.94,2.36.23,2.96.8.42,1.71.46,2.57.65,1.45.32,2.94.39,4.35.92,1.76.66,3.16,1.69,3.71,3.59.79,2.77-.46,5.43-3.26,6.6-3.32,1.39-6.67,1.28-9.92-.29-1.66-.8-2.74-2.16-3.24-3.95-.09-.33-.16-.68-.3-.99-.17-.38,0-.51.33-.52.64-.01,1.27,0,1.91,0,0-.04,0-.08,0-.12Z"></path><path class="cls-1" d="m45.17,101.89c0-2.91,0-5.83,0-8.74,0-.43.09-.57.54-.56,1.33.03,2.66.03,3.99.01.4,0,.52.12.52.53-.02,5.81-.03,11.62-.02,17.43,0,.56-.18.73-.73.72-1.31-.04-2.62-.03-3.94-.03-.26,0-.35-.1-.35-.33,0-.31-.02-.62-.02-.93,0-2.7,0-5.4,0-8.11h0Z"></path><path class="cls-1" d="m111.15,108.38c0-.77.02-1.54,0-2.31-.01-.36.13-.49.46-.49,1.62,0,3.24.01,4.85.01.31,0,.38.16.38.44-.01,1.56-.02,3.12-.01,4.68,0,.39-.14.55-.55.55-1.56-.02-3.12-.02-4.68,0-.34,0-.44-.14-.44-.45,0-.81,0-1.62,0-2.43,0,0-.01,0-.02,0Z"></path><path class="cls-1" d="m47.65,89.5c-.69,0-1.39-.02-2.08,0-.36.01-.51-.08-.5-.48.03-1.31.02-2.62.01-3.94,0-.39.09-.52.52-.52,1.39.01,2.78-.03,4.17.03.38.02.55.1.55.52-.02,1.31-.02,2.63,0,3.94,0,.37-.12.46-.46.44-.73-.02-1.47,0-2.2,0h0Z"></path></g></g></g></svg>