<svg xmlns="http://www.w3.org/2000/svg" id="Capa_2" data-name="Capa 2" viewBox="0 0 139.85 129.65"><defs><style>      .cls-1 {        fill: #464c51;      }    </style></defs><g id="Capa_1-2" data-name="Capa 1"><g id="g10"><g id="g12"><path id="path14" class="cls-1" d="m16.22,85.09v43.01h1.86c1.63,0,2.93-.46,3.9-1.4.97-.93,1.45-2.19,1.45-3.78v-33.82c0-1.43-.28-2.46-.84-3.09-.56-.62-1.44-.93-2.64-.93h-3.72Zm0-41.45v39.88h3.08c1.39,0,2.43-.34,3.11-1.05.67-.69,1.01-1.85,1.01-3.48v-30.26c0-1.97-.35-3.32-1.05-4.03-.7-.71-2.05-1.07-4.07-1.07h-2.09Zm-11.9,84.57V43.52H.62c-.41-.28-.62-.52-.62-.76,0-.19.21-.41.64-.69h17.06c5.24,0,9.53,1.82,12.86,5.46,3.34,3.65,5.01,8.77,5.01,15.35,0,4.04-.58,7.51-1.72,10.45-1.14,2.93-2.91,5.38-5.31,7.35-1.51,1.24-3.79,2.43-6.85,3.55,3.17,1.17,5.52,2.35,7.03,3.55,2.4,1.98,4.22,4.39,5.46,7.21,1.24,2.82,1.86,6.29,1.86,10.4,0,5.33-.91,10.05-2.72,14.17-1.23,2.87-3.26,5.28-6.08,7.19-2.81,1.93-6.19,2.89-10.12,2.89H.64c-.43-.26-.64-.5-.64-.72s.21-.46.62-.73h3.7"></path><path id="path16" class="cls-1" d="m43.7,43.52h-3.39c-.19,0-.35-.07-.49-.21-.13-.14-.2-.29-.2-.49,0-.23.07-.41.2-.54.14-.13.3-.2.49-.2h15.69l5.64,53.58,7-53.58h15.97c.24,0,.43.07.58.2.15.13.23.3.23.48,0,.24-.07.41-.23.55-.16.14-.35.21-.58.21h-3.79v84.69h3.8c.11,0,.19.04.23.11.11.19.17.41.17.67,0,.22-.04.39-.12.5-.08.11-.18.16-.29.16h-19.25c-.16,0-.31-.07-.44-.19-.14-.13-.2-.31-.2-.52,0-.23.06-.4.2-.53.14-.13.29-.2.44-.2h4.04V47.29l-10.13,80.35c-.16,1.04-.3,1.63-.41,1.79-.12.15-.3.23-.53.23h-3.82c-.24,0-.41-.08-.53-.23-.12-.16-.24-.76-.35-1.8l-8.36-79.52v73.86c0,2.02.2,3.44.61,4.26.41.81,1.12,1.4,2.13,1.75l2.62.24c.19.12.29.36.29.7,0,.31-.05.51-.14.61-.1.1-.33.14-.72.14h-10.16c-.16,0-.28-.05-.37-.16-.1-.11-.14-.25-.14-.43s.05-.31.14-.41c.09-.09.42-.24.98-.46,1.16-.46,1.94-1.06,2.36-1.8.56-1.01.84-2.45.84-4.32V43.52"></path><path id="path18" class="cls-1" d="m92.25,43.52h-3.45c-.19,0-.36-.07-.46-.21-.12-.14-.17-.29-.17-.49,0-.23.05-.41.17-.54.12-.13.27-.2.46-.2h18.85c.19,0,.35.07.49.2.14.13.21.3.21.48,0,.24-.07.41-.21.55-.13.14-.3.21-.5.21h-3.5v84.69h3.5c.4.26.58.5.58.73,0,.25-.19.49-.58.71h-19.32c-.43-.26-.64-.5-.64-.71,0-.23.21-.47.64-.73h3.93V43.52"></path><path id="path20" class="cls-1" d="m91.93,34.62c2.12-.52,7.6-3.06,9.3-2.99-1,1.66-15.96,19.62-15.96,19.62,0,0,15.14-16.76,18.43-16.49,4.85.41,11.74,27.96,13.41,34.9-8.08-33.45-9.92-37.33-8.25-36.89,3.85,1.01,30.98,10.01,30.98,10.01l-30.86-11.68c1.45-1.92,14.87-11.91,20.54-15.4-9.48,5.84-18.68,10.51-20.65,10.91-1.4.21-.82-1.22-.82-1.22.08-1.95,7.96-21.25,9.73-25.39-1.11,2.15-10.87,22.85-11.96,24.75l.67-11.26-2.16,10.74s-.01.04-.02.06c-.33,1.07-1.06,1.19-1.41,1.17-2.68-.41-11.87-7.08-18.2-11.89,5.9,4.83,14.57,11.69,15,14.14L49.71,10.52c10.08,3.68,34.96,13.38,50.2,18.98-.85,1.8-5.28,3.92-7.98,5.12"></path></g></g></g></svg>