<svg xmlns="http://www.w3.org/2000/svg" id="Capa_2" data-name="Capa 2" viewBox="0 0 266.35 108.29"><defs><style>      .cls-1 {        fill: #464c51;      }    </style></defs><g id="Capa_1-2" data-name="Capa 1"><g id="QnXaH8"><g><path class="cls-1" d="m0,1.99c.52-.33,1.03-.27,1.62-.16,1.49.25,3,.2,4.5.03.76-.08,1.26.14,1.35.93.07.54.05,1.09.05,1.63,0,15.77-.01,31.53-.01,47.3,0,1.75.11,3.48.51,5.22.27,1.19.73,2.36.79,3.61.03.65.46,1.25.7,1.87,1.03,2.58,2.5,4.9,4.62,6.72,1.1.95,2.32,1.75,3.63,2.44,1.32.69,2.77.95,4.07,1.63.34.18.71.16,1.07.17.91.02,1.78.27,2.66.48.31.08.61.1.92.1,2.5,0,4.99,0,7.49.01.36,0,.7-.06,1.06-.18.73-.26,1.47-.5,2.27-.44.23.02.52.07.69-.04,1.38-.83,3.05-.91,4.44-1.69,1.24-.69,2.41-1.48,3.48-2.45.63-.57,1.16-1.24,1.85-1.74.37-.27.33-.74.57-1.08.66-.95,1.41-1.89,1.85-2.94.68-1.66,1.45-3.32,1.58-5.15.03-.48.21-.91.33-1.35.53-1.86.26-3.76.33-5.65.59-15.83.09-31.67.27-47.5,0-.44-.11-.86-.13-1.3-.02-.64.32-.89.78-.74.84.27,1.63-.03,2.44-.03,10.94,0,21.89,0,32.83,0,2.96,0,5.93-.09,8.89.02,2.62.09,5.23.34,7.8,1.04.99.27,2.05.45,3.03.79,1.02.35,1.96.91,2.95,1.32,1.46.6,2.72,1.62,3.76,2.66,1.98,1.98,3.59,4.29,4.21,7.18.24,1.12.54,2.25.8,3.37.08.32.08.67.08,1,0,1.19,0,2.38,0,3.7.42-.37.56-.76.74-1.1,1.44-2.72,2.94-5.43,5.03-7.68.93-1,1.86-2.05,2.87-3.01,1-.95,2.15-1.72,3.12-2.72.53-.54,1.11-1.11,1.94-1.36.52-.16.94-.61,1.41-.93,1.14-.78,2.35-1.41,3.65-1.87.43-.15.81-.44,1.21-.66,1.42-.78,2.99-1.09,4.48-1.62,1.07-.38,2.25-.57,3.35-.87,1.97-.55,3.99-.51,5.97-.76,1.56-.2,3.2-.33,4.79.16.24.07.52.04.77.05,1.55.06,3.1-.11,4.63.32,1.88.52,3.8.9,5.68,1.44,3.42.99,6.41,2.83,9.44,4.6.92.54,1.62,1.43,2.49,2.06,2.55,1.82,4.48,4.18,6.21,6.74.76,1.13,1.65,2.19,2.18,3.45.35.84.81,1.59,1.29,2.35.37.58-.02,1.35-.77,1.54-1.27.33-2.54.69-3.8,1.05-1.1.31-2.11.96-3.24,1.26-1.54.41-3,1.06-4.53,1.53-.92.28-1.85.63-2.78.94-.94.32-1.82.86-2.86.87-.61,0-.96-.27-1.29-.8-1.2-1.9-2.53-3.66-4.44-4.97-1.21-.83-2.44-1.62-3.79-2.07-1.14-.38-2.29-.89-3.57-.9-1.44-.01-2.86-.53-4.32-.29-1.65.27-3.32.25-4.95.81-.87.3-1.75.61-2.59.96-1.44.59-2.54,1.72-3.75,2.68-1.36,1.07-2.33,2.45-3.36,3.8-.74.97-.97,2.16-1.52,3.22-.56,1.08-.73,2.28-1.11,3.42-.02.05-.06.09-.06.14-.19,2.54-1.16,5.05-.65,7.61.38,1.91.61,3.85,1.05,5.76.63,2.73,2.09,4.95,3.74,7.02,1.73,2.18,4.01,3.78,6.66,4.83,1.72.68,3.44,1.1,5.29,1.23,1,.07,1.99.28,3,.24,3.81-.13,7.33-1.22,10.42-3.45,1.65-1.2,2.95-2.79,3.99-4.56.24-.42.62-.74.71-1.27.06-.38.43-.36.77-.25,3.09,1.02,6.21,1.95,9.25,3.08,1.57.59,3.2.98,4.75,1.65.79.34,1.66.67,2.57.81,1.32.19,1.65.97,1.07,2.17-.93,1.92-2.19,3.62-3.5,5.28-.48.61-.83,1.3-1.29,1.93-1.29,1.74-2.87,3.2-4.45,4.64-1.39,1.26-2.95,2.33-4.58,3.29-2.4,1.41-4.8,2.89-7.47,3.7-1.06.32-2.15.66-3.25.91-1.48.34-2.99.56-4.44.98-.38.11-.75.18-1.14.18-3.09,0-6.19-.02-9.28,0-.52,0-.95-.22-1.44-.3-2.15-.37-4.28-.82-6.39-1.41-.94-.27-1.89-.56-2.79-.89-1.56-.56-3.04-1.39-4.51-2.18-1.36-.73-2.62-1.61-3.88-2.53-1.4-1.02-2.81-2.02-4.03-3.23-1.67-1.66-3.31-3.36-4.69-5.28-.24-.33-.42-.72-.61-1.08-.09-.17-.17-.36-.36-.37-.26,0-.16.28-.26.41-.89,1.23-.95,2.81-1.79,4.07-.86,1.28-1.74,2.54-2.69,3.75-.33.43-.82.64-1.26.89-.9.5-1.52,1.32-2.33,1.92-.97.72-2.17.95-3.18,1.58-1.08.67-2.29,1.22-3.5,1.41-1.18.18-2.28.6-3.43.85-2.28.49-4.58.39-6.86.63-2.03.21-4.04.18-6.06.18-10.16.03-20.33.01-30.49.01-1.27,0-1.43-.15-1.43-1.44,0-7.01-.02-14.03-.02-21.04,0-.41,0-.83-.09-1.25-.19.88-.24,1.78-.41,2.67-.48,2.46-1.14,4.82-2.1,7.15-1.15,2.81-3.13,5-4.79,7.43-.45.65-1.12,1.13-1.77,1.62-1.48,1.12-2.98,2.2-4.66,2.99-1.51.71-3.01,1.44-4.63,1.92-1.57.46-3.18.63-4.76.98-2.89.63-5.8.6-8.73.57-1.51-.02-2.97-.36-4.45-.51-1.4-.15-2.72-.61-4.11-.72-.69-.05-1.1-.61-1.75-.78-2.31-.62-4.45-1.68-6.42-3.02-.75-.51-1.5-1.08-2.07-1.83-.51-.67-1.24-1.14-1.85-1.74-1.27-1.25-2.21-2.69-3.12-4.2-.73-1.21-1.22-2.5-1.82-3.75-.59-1.23-.75-2.61-1.17-3.89-.49-1.49-.45-3.05-.84-4.54-.08-.29-.05-.62-.06-.93,0-15.22,0-30.44-.02-45.66,0-.37.16-.8-.25-1.08V1.99Zm87.13,42.11h0c-1.2,0-2.39,0-3.59,0-2.91,0-5.82,0-8.73,0-.36,0-.82-.07-.8.48.05,1.86-.18,3.72.15,5.58.17.97.21,1.96-.06,2.93-.15.54-.2,1.11-.05,1.61.21.72.14,1.44.2,2.16.07.89-.44,1.73-.23,2.61.18.74.19,1.48.24,2.23.05.77-.21,1.48-.28,2.23-.07.77.19,1.49.09,2.29-.15,1.18.29,1.5,1.52,1.5,7.28,0,14.55,0,21.83,0,.88,0,1.74.04,2.61-.25.62-.2,1.27-.4,1.96-.41.42,0,.89-.17,1.23-.42,1.13-.83,2.43-1.33,3.51-2.34,1.93-1.82,2.71-4.12,3-6.51.24-1.97.28-4.02-.42-6.05-.31-.91-.69-1.76-1.12-2.6-.76-1.51-2.05-2.51-3.45-3.33-.88-.51-1.7-1.31-2.89-1.11-.11.02-.25-.06-.37-.1-.89-.25-1.77-.51-2.72-.51-3.87.02-7.74,0-11.61,0Zm-.32-31.16v-.03c-3.85,0-7.69,0-11.54,0-1.18,0-1.27.11-1.27,1.31,0,4.52,0,9.04,0,13.56,0,.23-.04.48.03.7.42,1.38.26,2.79.17,4.18-.05.8.2.83.8.83,2.7-.01,5.41,0,8.11,0,.36,0,.73-.03,1.08.11.53.22,1.11.23,1.61.08.85-.25,1.7-.19,2.55-.19,2.39-.01,4.78.03,7.17-.02,1.18-.02,2.39.12,3.54-.32,1.04-.4,2.26-.43,3.03-1.42.07-.09.23-.11.34-.18,1.1-.71,2.02-1.67,2.64-2.77.85-1.5,1.22-3.22,1.27-4.97.03-1.16-.15-2.32-.22-3.47-.13-2.25-1.21-4.01-2.75-5.36-1.4-1.24-3.28-1.94-5.18-2-3.79-.12-7.59-.04-11.38-.04Z"></path><path class="cls-1" d="m238.99,108.29c-.1-.08-.2-.22-.3-.22-1.31-.05-2.04-.88-2.63-1.9-.05-.09-.16-.17-.16-.26-.03-2.02-.61-4.13.73-5.94.44-.59,1.12-1.16,2.03-1.08.44.03.88,0,1.32,0,1.77,0,3.33,1.49,3.41,3.29.05,1.29.11,2.59-.36,3.82-.31.82-.85,1.45-1.75,1.71-.39.11-.78.25-1.05.58h-1.25Zm-.9-5.15c0,.78-.04,1.33,0,1.87.06.68.44,1.16,1.12,1.33.57.14,1.1.02,1.44-.51.26-.41.48-.85.49-1.37.01-.94-.11-1.85-.25-2.77-.1-.68-.44-.98-.97-1.11-.61-.15-1.16.03-1.55.6-.47.69-.19,1.47-.28,1.96Z"></path><path class="cls-1" d="m262.39,108.29c-.43-.36-.95-.49-1.48-.57-.58-.08-.78-.25-.5-.86.53-1.16.6-1.21,2.16-.65.42.15.78.2,1.19-.01.34-.17.53-.39.5-.79-.03-.41-.23-.72-.62-.79-1.08-.21-1.88-.94-2.8-1.44-.7-.38-.94-1.95-.47-2.61.73-1.04,1.63-1.8,3.03-1.68.54.05,1.09,0,1.64.03.62.02,1.13.49,1.03,1-.1.55-.3,1.06-1.06.96-.46-.06-.92,0-1.37-.2-.49-.22-.9.06-1.12.43-.23.4.18.64.42.95.57.75,1.48.46,2.15.86,1.08.66,1.49,1.5,1.17,2.71-.05.2-.03.42-.09.61-.21.7-.37,1.4-1.3,1.54-.31.05-.71.17-.91.52h-1.56Z"></path><path class="cls-1" d="m219.02,108.29c-.26-.35-.67-.48-1.05-.58-.58-.15-.95-.43-.76-1.02.2-.61.67-.62,1.27-.43.69.23,1.43.2,2.11-.17.29-.15.62-.32.51-.68-.11-.34-.21-.79-.7-.82-.67-.04-1.23-.41-1.81-.68-1.15-.54-1.83-2.19-1.45-3.35.19-.58,1.62-1.64,2.3-1.66.81-.02,1.61-.01,2.42,0,.33,0,.75-.09.88.32.15.45.16.92-.2,1.32-.3.33-.69.38-1.07.23-.39-.16-.78-.25-1.2-.25-.51,0-.9.24-1.03.68-.14.45.21.71.63.91.49.24.95.48,1.5.58,1.49.28,2.46,2.28,1.76,3.61-.42.81-.96,1.55-1.96,1.74-.1.02-.18.16-.27.25h-1.87Z"></path><path class="cls-1" d="m241.02,89.43c-.39,1.38-.76,2.69-1.12,3.99-.23.83-.85.9-1.58.87-.67-.03-1.09-.44-1.15-.97-.14-1.36-.9-2.51-1.16-3.84-.02,1.28-.51,2.48-.44,3.76.03.52-.15.92-.72,1.03-.71.13-1.17-.22-1.19-.94-.03-1.01.09-2,.23-3.01.18-1.22.08-2.48.09-3.73.01-1.28.14-1.42,1.44-1.43,1.56-.01,1.61.04,1.73,1.58.01.18,0,.4.09.53.82,1.09.77,2.47,1.31,3.7.25-.07.28-.31.38-.54.61-1.48.7-3.1,1.22-4.61.16-.46.37-.65.82-.64.26,0,.52,0,.78,0,1.12.02,1.17.22,1.35,1.33.32,2.08.27,4.17.3,6.26,0,.1-.01.22.03.31.19.37.31.75-.1,1.04-.42.3-.91.2-1.35.07-.42-.12-.56-.48-.56-.92.01-.86-.01-1.71,0-2.57,0-.46-.09-.87-.42-1.28Z"></path><path class="cls-1" d="m228.82,34.59c-.31.33-.39.72-.38,1.14,0,.88,0,1.77,0,2.65,0,.55,0,1.07-.78,1.04-.8-.02-1.17-.33-1.18-1.1-.02-1.22-.01-2.44-.01-3.66,0-1.17.02-2.34.01-3.51,0-.59.26-.78.84-.85,1.07-.13,1.79.15,2.16,1.24.43,1.27,1.18,2.39,1.98,3.71,0-1.03,0-1.92,0-2.8,0-.36,0-.73,0-1.09,0-.97.1-1.02,1.08-1.06.69-.03.9.25.9.91-.02,2.23,0,4.47,0,6.7,0,.58.13,1.24-.66,1.48-.6.18-1.51-.22-1.86-.86-.41-.75-.84-1.5-1.13-2.29-.23-.61-.58-1.12-.96-1.64Z"></path><path class="cls-1" d="m244.92,103.73c.01-1.44-.05-2.88.15-4.31.05-.33.28-.52.6-.5,1.44.07,2.87-.24,4.31.27.87.31,1.26.98,1.45,1.66.27.98.12,2.02-.73,2.78-.55.5-.57,1-.05,1.53.27.28.38.66.68.94.56.51.62,1.24.08,1.71-.47.4-1.08.33-1.57-.04-.42-.31-.73-.71-.91-1.22-.18-.53-.43-1.05-.7-1.54-.12-.22-.32-.44-.63-.34-.28.09-.43.3-.43.58-.01.57-.03,1.14-.01,1.71.02.59-.26.94-.83,1.04-.6.11-1.07-.03-1.29-.69-.09-.28-.11-.56-.11-.84,0-.91,0-1.82,0-2.73Zm2.22-1.95c.12.42-.34,1.18.65,1.21.88.02,1.47-.53,1.47-1.41,0-.71-.41-.99-1.31-1.05-1.03-.07-.76.65-.81,1.25Z"></path><path class="cls-1" d="m232.14,89.53c.14,1.42-.08,2.67-.93,3.79-.24.32-.47.58-.85.74-1.21.51-2.43.57-3.67.13-.96-.34-2.13-1.83-2.09-2.91.03-1.04-.01-2.07.02-3.11.05-1.52,1.55-2.98,3.07-3,.41,0,.84.04,1.24-.01,1.27-.17,1.89.65,2.56,1.51.69.89.78,1.88.66,2.86Zm-2.24.34c0-.5.04-.89-.01-1.28-.08-.55-.14-1.15-.66-1.5-1.03-.69-2.29-.06-2.36,1.19-.05.96-.07,1.92,0,2.88.04.61.19,1.28.93,1.45.92.22,1.37-.07,1.84-.89.37-.64.21-1.31.26-1.86Z"></path><path class="cls-1" d="m255.22,34.91c.18,1.74-.6,3.15-2.04,4.16-.68.48-1.51.7-2.41.48-.66-.16-1.26-.44-1.85-.76-.83-.47-1.32-1.11-1.26-2.13.05-.88-.39-1.71-.26-2.61.21-1.45.59-2.77,2.05-3.5.95-.47,1.94-.1,2.9-.24.64-.09,1.14.23,1.48.69.82,1.14,1.51,2.34,1.39,3.9Zm-2.54,0s.02,0,.03,0c0-.47,0-.93,0-1.4,0-.82-.4-1.42-1-1.54-.82-.17-1.43.17-1.82.95-.45.91-.13,1.89-.24,2.82-.05.47.12.87.33,1.25.35.61.88.97,1.61.75.69-.21,1.19-.59,1.1-1.45-.05-.46,0-.93,0-1.39Z"></path><path class="cls-1" d="m257.11,85.2c.86-.23,1.64.18,2.38.75.42.33.62.75.84,1.25.8,1.9.51,3.76-.15,5.57-.37,1.02-1.4,1.34-2.38,1.51-1.06.19-2.18.08-3.11-.37-.64-.31-1.3-.95-1.38-1.82-.08-.92-.08-1.84-.23-2.77-.3-1.76,1.22-4.54,4.03-4.12Zm1.19,4.54c0-.39,0-.78,0-1.17-.01-1.1-.52-1.71-1.44-1.75-.73-.03-1.52.76-1.57,1.63-.05.85-.06,1.72,0,2.57.06.94.86,1.68,1.65,1.62.88-.07,1.35-.66,1.36-1.74,0-.39,0-.78,0-1.17Z"></path><path class="cls-1" d="m217.46,34.11c0-.94-.02-1.87,0-2.81.02-.82.31-.98,1.32-1,.75-.02.92.36.91,1.01-.03,1.56,0,3.12-.01,4.68,0,1.37.85,2,2.09,1.46.56-.25.61-.93.62-1.48.04-1.53.01-3.06.02-4.6,0-.95.1-1.04,1-1.06.96-.01,1.22.19,1.23,1.08.02,1.53.02,3.06,0,4.6,0,.85-.34,1.62-.71,2.36-.37.74-1.21.69-1.86.97-1.21.52-2.4.23-3.41-.33-.71-.4-1.22-1.25-1.21-2.22,0-.88,0-1.77,0-2.65Z"></path><path class="cls-1" d="m246.54,38.32c-.07.46.08,1.01-.5,1.06-.57.05-1.29.34-1.57-.53-.04-.12-.13-.23-.16-.35-.39-1.28-.39-1.27-1.68-1.27-.62,0-.99.15-1.14.86-.24,1.11-.91,1.52-1.84,1.29-.49-.12-.83-.42-.62-.96.92-2.35,1.41-4.82,2.12-7.23.19-.65.5-.99,1.2-.89.1.02.21,0,.31,0,1.97,0,1.93,0,2.3,1.9.37,1.86.72,3.74,1.46,5.5.09.21.09.45.12.62Zm-3.62-5.82c-.13.42-.26.83-.39,1.24-.14.43-.42.84-.36,1.33.03.21,0,.45.25.5.35.07.73.13,1.05-.07.23-.14.15-.41.09-.64-.21-.79-.43-1.58-.64-2.36Z"></path><path class="cls-1" d="m253.3,103.48c0-1.22.02-2.44,0-3.66-.01-.66.25-.94.92-.93,1.22.02,2.44,0,3.66,0,.47,0,1.05-.14,1.11.62.04.59-.48,1.23-1.11,1.28-.54.05-1.09.03-1.63.02-.53,0-.96.13-.95.76.01.6.43.78.95.78.39,0,.78,0,1.17.02.7.04,1.24.51,1.2,1.08-.06.72-.58.83-1.18.81-.28-.01-.57,0-.86,0-.96,0-1.36.62-1.01,1.5.14.35.44.31.72.33.67.04,1.33-.06,1.99.24.56.26.8.63.72,1.21-.09.64-.6.45-.98.46-1.3.02-2.6-.01-3.89.01-.6.01-.84-.21-.83-.82.02-1.24,0-2.49,0-3.73h0Z"></path><path class="cls-1" d="m245.5,89.66c0-1.19.02-2.38,0-3.58-.02-.68.27-.93.93-.91.7.03,1.4.05,2.1,0,1.06-.08,2.04.25,2.65,1.03.63.8.87,1.87.54,2.91-.52,1.65-1.49,2.33-3.27,2.39-.93.03-1.14.34-.84,1.24.15.46.24.93-.17,1.3-.46.4-1.03.32-1.55.2-.41-.09-.38-.5-.38-.84,0-.62,0-1.24,0-1.87,0-.62,0-1.24,0-1.87h0Zm2.24-1.37c.15.32-.25.91.27,1.18.43.22.91.04,1.31-.25.53-.38.38-.87.24-1.37-.13-.49-.88-1.09-1.37-1-.71.12-.39.71-.45,1.12-.01.08,0,.15,0,.33Z"></path><path class="cls-1" d="m217.11,89.33c-.18-.92.1-1.9.75-2.81.58-.82,1.24-1.43,2.34-1.35.62.04,1.25.01,1.87,0,.45,0,.8.19,1.07.54.46.59.21,1.27-.54,1.37-.38.05-.78.02-1.17,0-1.41-.07-1.63-.03-1.92,1.31-.24,1.09-.38,2.26.17,3.35.36.71,1.14,1.01,1.9.76.22-.07.45-.12.67-.2.42-.15.89-.54,1.15.17.26.69,0,1.35-.56,1.6-1.21.53-2.46.62-3.66.07-1.33-.62-1.88-1.84-2.05-3.23-.06-.46,0-.93,0-1.59Z"></path><path class="cls-1" d="m217.76,48.59c0-1.19.03-2.39-.01-3.58-.03-.77.3-1.02,1.01-.99.86.03,1.71,0,2.57.02.8,0,1.71.69,2,1.48.32.87.09,1.75-.6,2.35-.49.42-.28.81.14,1.07.88.54.82,1.46.78,2.23-.04.79-.54,1.41-1.45,1.71-1.29.43-2.57.2-3.86.26-.55.03-.6-.38-.6-.8,0-1.25,0-2.49,0-3.74h.01Zm2.83.51q-1.58,0-1.54,1.46c.04,1.61.07,1.61,1.86,1.57.91-.02,1.45-.67,1.48-1.53.04-1.02-.43-1.49-1.42-1.5-.13,0-.26,0-.39,0Zm-1.52-2.56c0,1.62.16,1.76,1.68,1.53,1.15-.17,1.83-1.55,1.18-2.41-.37-.49-1.84-.86-2.53-.57-.66.28-.21.92-.34,1.37,0,.02,0,.05,0,.08Z"></path><path class="cls-1" d="m217.74,76.17c0-1.19-.01-2.39,0-3.58.01-.86.27-1.11,1.13-1.13.73-.01,1.46.02,2.18,0,1.23-.04,2.34.53,2.79,1.5.57,1.21,1.1,2.59.69,4.03-.24.83-.32,1.69-.97,2.4-.76.83-1.68,1.15-2.74,1.19-.75.03-1.51-.01-2.26.01-.61.02-.84-.25-.83-.84.02-1.19,0-2.39,0-3.58Zm1.33-.17h0c0,.96.02,1.92,0,2.87-.01.49.17.68.67.71.61.03,1.17-.18,1.75-.28.79-.13,1.89-1.35,1.72-2.11-.19-.85-.06-1.7-.17-2.55-.1-.79-.4-1.46-1.14-1.81-.66-.3-1.37-.4-2.11-.37-.53.02-.75.19-.73.73.03.93,0,1.86,0,2.8Z"></path><path class="cls-1" d="m228.18,44.03c1.19-.29,2.25.22,3.03,1.4.39.58.45,1.61.04,2.18-.35.48-.69.96-1.07,1.42-.14.18-.26.35-.14.55.47.76.57,1.73,1.33,2.33.28.22.56.5.23.92-.29.36-.55.19-.89.07-.42-.16-.69-.4-.87-.81-.29-.68-.72-1.3-.92-2.03-.13-.47-1-.82-1.51-.64-.6.21-.53.61-.37,1.12.19.59.12,1.24.06,1.85-.05.42-.3.73-.78.72-.53-.02-.47-.45-.5-.81-.08-1.26-.11-2.52-.17-3.77-.06-1.3.16-2.66.18-4,0-.36.24-.5.57-.5.52,0,1.04,0,1.77,0Zm-1.05,2.73c0,.15,0,.31,0,.46,0,1.23.02,1.24,1.27,1.17.13,0,.26,0,.38-.04.85-.24,1.42-1.07,1.27-1.85-.24-1.23-.81-1.61-2.25-1.47-1.16.11-.48,1.03-.67,1.56-.02.05,0,.1,0,.15Z"></path><path class="cls-1" d="m235.83,62.39c0-1.19.03-2.39-.01-3.58-.02-.76.24-1.11,1.03-1.07.7.04,1.4,0,2.1.01,2.04.04,3.17,1.92,2.27,3.75-.22.44-.42.88-.88,1.14-.32.19-.39.44-.17.84.45.81.71,1.71,1.45,2.34.35.3.24.6-.08.84-.48.35-.91.23-1.2-.23-.5-.81-.94-1.66-1.4-2.5-.15-.27-.22-.6-.52-.75-.7-.36-1.28.02-1.27.81,0,.62.01,1.25.01,1.87,0,.53-.2.96-.78.96-.61,0-.54-.52-.54-.92,0-1.17,0-2.34,0-3.5,0,0,0,0,0,0Zm2.39-3.63c-.37.08-1.02-.28-1.04.56-.02.75-.01,1.5-.02,2.24,0,.33.12.55.49.55.44,0,.9.07,1.31-.04.62-.17,1.1-.6,1.22-1.26.19-1.09,0-1.43-.79-1.85-.37-.2-.74-.18-1.17-.21Z"></path><path class="cls-1" d="m230.53,104.23c0-.83-.04-1.66.01-2.49.05-.73-.22-.97-.93-.94-.93.04-1.27-.33-1.26-1.15.01-.58.31-.76.84-.76,1.53,0,3.07,0,4.6-.01.49,0,.87.07.88.7.01.61-.14,1.23-.8,1.2-1.12-.06-1.11.53-1.09,1.34.04,1.56.01,3.11,0,4.67,0,.75-.49,1.2-1.28,1.2-.67,0-.98-.36-.99-1.19,0-.86,0-1.71,0-2.57h0Z"></path><path class="cls-1" d="m239.64,52.08c.03.67-.26,1-.76,1.03-.5.03-.53-.39-.56-.76-.13-1.78-1.49-2.61-3.2-1.93-.26.1-.41.29-.46.58-.11.59-.44,1.1-.71,1.63-.18.35-.46.61-.88.45-.44-.17-.43-.62-.27-.93.5-.97.66-2.05.99-3.08.48-1.49,1.13-2.92,1.42-4.47.12-.63.61-.51,1.03-.55.6-.07,1.02.12,1.17.74.4,1.62.96,3.19,1.47,4.78.28.87.53,1.77.74,2.53Zm-2.27-3.07c-.05-.12-.1-.21-.12-.31-.2-.88-.46-1.74-.79-2.58-.04-.11.01-.3-.16-.31-.17-.01-.31.14-.32.29-.04,1.03-.76,1.86-.81,2.89,0,.23-.01.35.18.41.64.2,1.25-.05,1.87-.15.06-.01.1-.16.15-.24Z"></path><path class="cls-1" d="m227.15,57.75c.62,0,1.25,0,1.87,0,.35,0,.62.14.6.54-.02.37-.29.47-.6.47-.81,0-1.61.01-2.42,0-.48-.01-.72.16-.72.67.02,2.56-.25,2.03,1.94,2.11.41.01.81.09,1.22.13.33.03.54.17.55.52.01.37-.16.6-.55.61-.67.02-1.35.02-2.03.03q-1.13,0-1.14,1.17c-.01,1.86.52,2.27,2.36,1.78.12-.03.25-.14.36-.12.41.08.96.05,1.02.62.06.61-.44.59-.87.59-.94,0-1.87,0-2.81,0-1.18,0-1.88-.85-1.56-1.98.2-.7.14-1.35.01-2.05-.16-.93-.22-1.91.06-2.85.15-.52.09-1.03.1-1.54,0-.49.21-.71.71-.69.62.02,1.25,0,1.87,0Z"></path><path class="cls-1" d="m226.51,75.88c.06-1.07-.13-2.39.25-3.69.14-.48.28-.73.8-.73,1.17,0,2.34,0,3.51,0,.34,0,.74,0,.75.47,0,.51-.41.54-.78.54-.75.01-1.51.02-2.26,0-.45,0-.69.17-.69.63,0,.05,0,.1,0,.16-.02,2.36-.15,1.94,1.84,1.98.23,0,.47,0,.7,0,.42.02.84.14.82.63-.01.45-.42.63-.84.64-.6.02-1.2.01-1.79.02-.54,0-1.05.04-.77.82.02.05,0,.1,0,.15q-.27,2.05,1.75,2.05c.44,0,.88,0,1.33.01.3,0,.51.16.55.45.03.27-.19.46-.42.48-1.29.12-2.61.24-3.87-.04-.67-.15-.82-.89-.84-1.53-.03-.93,0-1.87,0-3.05Z"></path><path class="cls-1" d="m246.19,64.08c-.83-.1-1.49.19-1.76,1.18-.13.48-.43.89-.81,1.21-.2.17-.43.31-.69.05-.21-.21-.14-.4-.02-.63.52-1,.67-2.13,1.02-3.18.39-1.19.71-2.41,1.1-3.61.07-.22.13-.44.18-.67.1-.44.39-.66.83-.68.49-.02,1.05-.12,1.27.48.48,1.36.92,2.73,1.36,4.1.28.88.51,1.78.83,2.64.17.46.17.92.12,1.38-.05.41-.3.53-.66.29-.33-.22-.58-.49-.65-.92-.22-1.43-.5-1.65-2.11-1.64Zm.08-5.04c-.19,1.15-.5,2.04-.91,2.9-.21.44-.28,1.03.28,1.3.46.22,1.03.27,1.47-.08.44-.35.28-.83.12-1.28-.3-.87-.59-1.73-.96-2.83Z"></path><path class="cls-1" d="m242.43,46.46c-.1.71.47,1.06,1.07,1.22.63.18,1.2.47,1.79.73,1.01.45,1.48,1.68,1.22,3.07-.17.92-.93,1.54-1.99,1.65-.95.1-1.9.19-2.81-.25-.2-.1-.49-.14-.46-.44.02-.3.26-.44.5-.54.33-.13.66-.12.98.05.62.31,1.28.21,1.91.12.62-.09.65-.74.7-1.18.06-.48-.03-1.03-.6-1.31-.95-.46-1.93-.84-2.83-1.4-.98-.61-1.29-1.49-.77-2.49.65-1.28,1.78-2.27,3.74-1.71.25.07.53,0,.77.1.33.13.59.4.44.79-.13.33-.4.54-.81.33-.59-.29-1.24-.22-1.84-.13-.65.09-1,.59-1.01,1.38Z"></path><path class="cls-1" d="m227.17,103.36c0,1.17,0,2.33,0,3.5,0,.84-.31,1.13-1.12,1.13-.81,0-1.13-.3-1.13-1.12,0-2.23.02-4.46,0-6.68-.01-1.46.73-1.36,1.8-1.26.44.04.46.43.46.78,0,1.22,0,2.44,0,3.65h0Z"></path><path class="cls-1" d="m237.79,34.8c0,1.19-.01,2.39,0,3.58,0,.73-.38,1-1.05,1.06-.66.06-.84-.22-.96-.87-.46-2.43-.13-4.86-.2-7.29-.03-.82.31-.96,1.4-.98.77-.01.83.41.82,1-.02,1.17,0,2.34,0,3.5Z"></path><path class="cls-1" d="m217.73,62.19c0-1.12,0-2.23,0-3.35,0-.48-.11-1.06.65-1.08.78-.02.67.56.67,1.04,0,1.94,0,3.89,0,5.83,0,1.13.47,1.5,1.5,1.06.76-.33,1.36.12,2.02.23.24.04.22.32.19.53-.03.24-.18.38-.42.39-1.3.05-2.6.09-3.89-.04-.57-.06-.73-.51-.73-1.03,0-1.19,0-2.39,0-3.58h0Z"></path><path class="cls-1" d="m250.21,48.62c0,1.17,0,2.33,0,3.5,0,.43-.06.88-.57.98-.59.12-.73-.39-.89-.79-.09-.23-.09-.51-.08-.77.09-1.8-.22-3.62.24-5.41.08-.3-.05-.61-.11-.91-.09-.5.02-1.05.6-1.15.63-.11.78.4.8.9.03.91.02,1.81.02,2.72,0,.31,0,.62,0,.93h0Z"></path><path class="cls-1" d="m233.1,62.27c0,1.25,0,2.49,0,3.74,0,.33.04.72-.42.8-.45.09-.54-.3-.7-.59-.13-.24-.18-.48-.18-.75,0-2.23.01-4.46.02-6.69,0-.15,0-.32.06-.46.13-.33.34-.59.75-.54.41.05.48.34.48.68,0,1.27,0,2.54,0,3.81Z"></path><path class="cls-1" d="m243.59,29.78c-.68-.02-1.35-.33-2.05-.02-.22.1-.53,0-.64-.31-.11-.31.03-.57.26-.76.56-.44,1.18-.32,1.77-.11.29.1.52.17.8,0,.33-.19.69-.25,1.02,0,.16.13.15.31.06.49-.19.38-.38.75-.9.69-.1-.01-.21,0-.31,0Z"></path></g></g></g></svg>