<svg xmlns="http://www.w3.org/2000/svg" id="Capa_2" data-name="Capa 2" viewBox="0 0 294.8 74.27"><defs><style>      .cls-1 {        fill: #464c51;      }    </style></defs><g id="Capa_1-2" data-name="Capa 1"><g><path class="cls-1" d="m112.3,38.82c-.44-.03-.35.31-.35.55-.02.92-.19,1.82-.33,2.73-.32,2.15-.32,4.37-1.31,6.36-.69,1.38-1.25,2.9-2.73,3.74-.88.5-1.66.31-2.01-.62-.15-.4-.26-.84-.28-1.3-.19-5.17,0-10.35-.06-15.52-.18-5.74.23-11.48-.17-17.21-.18-2.59-.73-5.13-1.89-7.43-2.33-4.64-6.56-6.93-11.25-8.52-1.74-.59-3.56-.98-5.39-1.2-4.14-.51-8.26-.59-12.42.2-3.77.72-7.4,1.62-10.73,3.67-2.88,1.77-5.04,4.12-5.94,7.31-1.29,4.57.71,9.37,5.02,11.57,1.06.54,2.15,1.41,3.42,1.22,1.86-.28,3.72-.13,5.58-.99,3.73-1.73,5.47-4.62,6-8.47.19-1.37-.12-2.7-.69-3.98-1.04-2.33-2.75-3.89-5.19-4.56-1.3-.36-2.65-.64-4.04-.31-.56.13-1.07-.16-.59-.8.8-1.05,1.62-2.15,2.85-2.71,3.02-1.37,6.17-1.96,9.51-1.45,1.92.29,4.15,2.14,4.52,4,.82,4.11,1.17,8.22.05,12.33-.58,2.12-1.49,3.98-3.28,5.42-3.53,2.83-7.69,3.8-12.01,4.52-2.81.46-5.66.74-8.35,1.81-1.77.71-3.32,1.72-4.38,3.28-2.37,3.52-3.11,7.45-2.56,11.64.36,2.68,1.51,4.98,3.44,6.83,2.22,2.13,5.04,3.11,8.01,3.63,2.9.5,5.82.48,8.76.39,2.5-.07,4.5-1.18,6.21-2.79,2.03-1.91,3.29-4.38,4.3-6.97.11-.28.11-.67.46-.67.32,0,.46.35.53.66.04.18.1.37.16.55.7,2.1,1.54,4.16,3.26,5.62,1.93,1.64,4.17,2.95,6.62,3.46,3.91.82,7.86.64,11.56-1.13,2.3-1.1,3.8-2.98,4.56-5.41.39-1.24.59-2.53,1.01-3.76.58-1.69.37-3.43.44-5.15.01-.24.1-.57-.32-.6Zm-27.86-4.3c-.19,3.58-.24,7.2-1.32,10.65-.86,2.75-2.22,5.28-4.73,6.98-2.37,1.62-3.98.45-4.55-1.95-.92-3.88-.64-7.81-.75-11.73-.06-2.26.22-4.48.73-6.66.59-2.53,2.02-4.53,4.16-6.09,1.8-1.31,3.74-2.49,5.11-4.32.24-.32.38-.72.58-1.07.14-.25.22-.67.54-.61.41.07.24.5.24.77.01,2.66,0,5.32,0,7.99,0,0,0,0,0,0,0,2.02.09,4.04-.02,6.05Z"></path><path class="cls-1" d="m293.95,20.92c-.82-3.13-2.07-6.07-3.94-8.69-1.87-2.63-4.1-4.93-6.74-6.84-2.71-1.96-5.72-3.19-8.84-4.26-2.47-.85-5.01-1.02-6.98-.97-5.51-.09-7.86.43-11.15,1.69-4.28,1.64-7.93,4.24-10.98,7.69-2.15,2.44-3.89,5.09-5.09,8.13-1.7,4.32-2.12,8.74-1.62,13.34.4,3.69,1.59,7.05,3.48,10.18,1.84,3.05,4.12,5.73,6.97,7.94,3.23,2.51,6.8,4.35,10.72,5.31,5.27,1.29,10.56,1,15.75-.75,4.84-1.63,8.88-4.4,12.3-8.19,2.59-2.86,4.48-6.08,5.64-9.74,1.55-4.9,1.79-9.83.48-14.84Zm-20.64,23.05c.05,2.68-.31,5.34-1.73,7.75-.99,1.69-3.48,2.78-5.44,2.66-3.72-.24-5.16-3.25-5.75-5.88-.43-1.93-.46-3.88-.47-5.84,0-10.07-.03-20.15.01-30.22.01-2.85.07-5.73,1.36-8.38,1.03-2.12,2.66-3.33,5.03-3.19,3.97-.12,5.98,2.47,6.38,5.96,1.42,12.36.36,24.76.6,37.14Z"></path><path class="cls-1" d="m178.04.53c-.23-.02-.46,0-.68,0-6.05,0-12.1-.01-18.15,0-.65,0-1.29.06-1.94.11-.2.01-.38.12-.4.33-.03.21.13.35.33.4.69.16,1.3.53,2,.68,1.14.25,2.08.89,2.57,1.98,1.18,2.62,1.79,5.36,1.32,8.23-.49,2.98-1.12,5.93-1.99,8.84-1.04,3.45-2.41,6.78-3.42,10.23-.44,1.5-1.19,2.89-1.62,4.71-.32-.61-.58-.98-.71-1.38-.53-1.59-1.3-3.07-1.99-4.6-1.09-2.42-2.16-4.86-3.15-7.32-.68-1.69-1.56-3.31-2.24-4.98-.92-2.26-1.7-4.59-2.75-6.8-.88-1.86-1.76-3.7-2.3-5.67-.21-.78-.26-1.57.23-2.39.8-1.32,2.04-1.24,3.27-1.33.51-.04,1.27.08,1.27-.58,0-.82-.83-.45-1.27-.45-10.16-.02-20.32-.02-30.48-.02-1.1,0-2.21,0-3.31.02-.32,0-.65.08-.64.48.01.36.28.5.63.5.34,0,.68.03,1.03.03,1.67,0,3,.69,4.05,1.97,1.19,1.43,2.21,2.92,2.91,4.7.78,1.98,1.81,3.89,2.68,5.84,1.52,3.4,3.49,6.56,4.82,10.04.85,2.23,2.07,4.3,3,6.48,1.29,3.04,2.74,6,4.15,8.97,1.11,2.35,2.28,4.68,3.39,7.03,1.31,2.78,2.58,5.59,3.84,8.4.91,2.02,1.68,4.11,2.83,6,.91,1.49,1.27,2.82.21,4.51-2.35,3.76-5.33,6.56-9.73,7.7-2.79.72-5.45.59-8-.84-.29-.16-.67-.4-.55-.75.14-.4.61-.24.9-.19,2.63.49,5.18.22,7.53-1.04,1.23-.65,2.24-1.71,2.89-2.91,1.05-1.95,1.24-4.11,1.04-6.33-.18-1.96-.81-3.74-2.07-5.19-2.6-3-5.98-4.14-9.83-3.24-4.56,1.07-7.1,4.25-7.83,8.75-.73,4.55.68,8.25,4.83,11.02,2.17,1.44,4.5,1.74,6.96,1.77,3.48.05,6.69-.51,9.6-2.77,3.01-2.33,5.04-5.25,6.5-8.66,1.6-3.75,2.77-7.66,4.05-11.52,1.28-3.85,2.45-7.73,3.78-11.57.48-1.4.64-2.96,1.24-4.26,1.3-2.84,2.18-5.84,3.1-8.78,1.17-3.74,2.46-7.45,3.76-11.14,1.1-3.14,2.81-6.06,4.81-8.78,2.38-3.23,5.5-5.09,9.49-5.49.27-.03.65.02.67-.27.02-.31-.32-.49-.65-.51Z"></path><path class="cls-1" d="m39.52,22.1c-2.75-1.28-5.59-2.3-8.5-3.14-2.84-.82-5.62-1.82-8.38-2.94-2.26-.92-4.24-2.08-5.62-4.06-.52-.75-1.17-1.56-1.22-2.59-.07-1.59.03-3.16.7-4.61.81-1.76,1.91-3.32,3.93-3.83,2.38-.61,4.7-.35,6.97.63,3.4,1.46,6.05,3.74,8.33,6.67,2.43,3.11,4.3,6.4,5.12,10.27.05.24-.19.79.32.77.56-.03.39-.55.39-.9.01-5.67.02-11.34.02-17,0-.35.18-.86-.27-1.01-.55-.18-.66.36-.85.71-.42.79-.82,1.69-1.77,1.84-1,.15-2.15.31-3.05-.03-1.89-.72-3.88-1.09-5.77-1.81-1.09-.41-2.35-.74-3.55-.8-2.32-.11-4.66-.06-6.99-.03-.74,0-1.51.06-2.22.26-3.74,1.09-7.31,2.38-10.31,5.13-2.62,2.41-4.31,5.3-5.1,8.59-.86,3.58-.84,7.28.66,10.81.98,2.3,2.39,4.24,4.37,5.8,2.44,1.93,5.25,3.07,8.11,4.2,3.99,1.59,8.21,2.56,12.09,4.45,2.01.98,4,1.86,4.93,4.22,1.39,3.54.45,6.77-1.87,8.93-2.63,2.46-5.98,2.42-9.24,1.27-3.26-1.16-6.08-3.04-8.65-5.4-3.3-3.04-6-6.52-8.18-10.4-1.42-2.52-2.49-5.18-3.14-8.01-.06-.26.09-.84-.43-.78-.57.06-.32.6-.32.93-.02,3.88-.01,7.76-.01,11.64h0c0,3.08,0,6.16,0,9.24,0,.99,0,1.98.03,2.97,0,.22-.1.59.29.64.31.04.46-.19.58-.44.06-.13.14-.27.24-.38,1.31-1.59,2.59-3.26,5-2.93.85.12,1.7.16,2.52.5.94.4,1.93.7,2.91,1.01,1.09.34,2.2.63,3.29.94,2.62.75,5.24,1.66,7.97,1.79,2.52.12,5.05.17,7.57-.39,3.74-.83,7.18-2.17,10.1-4.74,2.94-2.58,4.81-5.67,5.72-9.54,1.28-5.46.7-10.5-2.68-15-1.05-1.4-2.42-2.65-4.09-3.42Z"></path><path class="cls-1" d="m229.79,37.13c-1.13,4.24-2.87,8.24-5.8,11.49-3.06,3.41-6.96,5.49-11.73,5.61-3.04.08-5.55-1.01-7.55-3.2-1.72-1.89-2.45-4.32-3.07-6.72-.79-3.05-.82-6.21-.99-9.33-.26-4.77-.21-9.55.11-14.32.2-2.9.21-5.84.94-8.68.45-1.76.86-3.55,1.54-5.22,1.01-2.47,2.5-4.57,5.25-5.43,3.87-1.22,11.52.23,14.48,4.95.1.16.26.29.11.49-.14.17-.29.34-.57.24-2.12-.8-4.32-.66-6.48-.41-2.57.3-4.86,1.46-6.58,3.39-1.77,2-2.37,4.47-2.37,7.16,0,3.8,1.73,6.69,4.67,8.82,2.9,2.1,6.32,2.26,9.74,1.81.99-.13,1.99-.59,2.87-1.09,2.6-1.47,4.02-3.82,4.93-6.61.91-2.77,1-5.58-.16-8.15-1.29-2.84-3.27-5.27-5.75-7.28-3.02-2.45-6.34-4.06-10.26-4.47-5.3-.56-10.39.3-15.32,2.12-5.81,2.15-10.27,6.1-13.95,10.99-2.26,3-3.6,6.43-4.49,10.03-.94,3.8-.6,7.61.36,11.39.54,2.11,1.08,4.22,2.1,6.15,1.07,2.01,2.38,3.87,3.87,5.59,2.42,2.79,5.47,4.76,8.78,6.23,3.62,1.6,7.5,2.33,11.47,2.42,3.73.08,7.42.21,11.09-.97,4.37-1.41,7.37-4.41,9.87-7.95,1.38-1.96,2.36-4.25,3.03-6.59.66-2.31,1.44-4.6,1.13-7.13-.66,1.55-.88,3.15-1.29,4.69Z"></path></g></g></svg>