<svg xmlns="http://www.w3.org/2000/svg" id="Capa_2" data-name="Capa 2" viewBox="0 0 172.41 96"><defs><style>      .cls-1 {        fill: #464c51;      }    </style></defs><g id="Capa_1-2" data-name="Capa 1"><g><path class="cls-1" d="m88.21,93.84c-1.47-.62-4.4-1-8.76-1.12-6.39-.16-11.31-.49-14.74-.97-1.34,1.45-2.34,2.79-3.02,4.04l-.11.21h25.81c.95,0,1.86-.16,2.72-.44-.34-.74-.97-1.31-1.89-1.71"></path><path class="cls-1" d="m48.18,89.68c-2.67,2.16-5.68,3.26-9,3.26-2.4,0-5.12-.42-8.18-1.28-.93-.28-1.7-.42-2.3-.42-.65,0-1.16.36-1.54,1.1h-1.4v-13.92h1.4c.8,3.97,2.32,6.96,4.56,8.98,2.24,2.02,4.75,3.02,7.53,3.02,1.96,0,3.56-.57,4.8-1.72,1.24-1.16,1.85-2.54,1.85-4.16,0-1.96-.68-3.6-2.06-4.94-1.37-1.34-4.11-3.02-8.24-5.07-4.11-2.03-6.8-3.88-8.08-5.52-1.28-1.63-1.92-3.66-1.92-6.13,0-3.21,1.1-5.9,3.3-8.05,2.19-2.15,5.04-3.24,8.53-3.24,1.54,0,3.4.33,5.58.99,1.45.42,2.41.64,2.89.64s.81-.1,1.08-.31c.25-.2.55-.64.89-1.32h1.41v13.28h-1.41c-1.08-4.17-2.46-7-4.14-8.52-1.7-1.5-3.85-2.25-6.45-2.25-1.99,0-3.59.52-4.81,1.59-1.22,1.05-1.83,2.21-1.83,3.49,0,1.59.45,2.95,1.35,4.08.89,1.16,2.67,2.4,5.38,3.71l6.21,3.02c5.77,2.8,8.65,6.51,8.65,11.12,0,3.55-1.34,6.4-4.03,8.58M87.39,0H8.61C3.87,0,0,3.87,0,8.61v78.78c0,4.73,3.87,8.61,8.61,8.61h49.43c.23-.29,1.67-1.81,4.34-4.58-1.48-.89-2.52-1.67-3.13-2.37-.61-.7-.92-1.48-.92-2.37,0-.99.39-2.15,1.21-3.49.81-1.34,2.67-3.23,5.6-5.67-2.38-1.16-4.21-2.78-5.49-4.87-1.28-2.09-1.9-4.39-1.9-6.92,0-3.87,1.45-7.18,4.36-9.97,2.91-2.78,6.63-4.17,11.18-4.17,3.72,0,6.93.92,9.67,2.73h8.26c1.22,0,1.93.03,2.14.1.19.07.34.19.42.36.17.26.26.71.26,1.37,0,.74-.07,1.25-.22,1.53-.09.14-.23.26-.45.35-.2.09-.93.12-2.15.12h-5.06c1.59,2.05,2.38,4.66,2.38,7.85,0,3.63-1.4,6.73-4.17,9.32-2.79,2.59-6.53,3.88-11.21,3.88-1.93,0-3.9-.29-5.91-.86-1.25,1.08-2.09,2.02-2.53,2.83-.45.81-.67,1.5-.67,2.06,0,.48.23.95.7,1.41.48.45,1.39.77,2.75.97.8.12,2.79.22,5.97.31,5.84.13,9.63.33,11.36.6,2.63.36,4.74,1.34,6.32,2.94,1.16,1.18,1.9,2.56,2.2,4.15,1.64-1.57,2.66-3.78,2.66-6.21V8.61c0-4.73-3.87-8.61-8.61-8.61"></path><path class="cls-1" d="m73.65,77.1c2.17,0,3.94-.8,5.32-2.43,1.39-1.61,2.09-4.16,2.09-7.62,0-4.52-.97-8.05-2.94-10.61-1.45-1.87-3.31-2.8-5.58-2.8-2.09,0-3.87.84-5.28,2.51-1.42,1.67-2.14,4.24-2.14,7.7,0,4.49.97,7.96,2.91,10.44,1.47,1.88,3.34,2.8,5.61,2.8"></path><path class="cls-1" d="m123.38,83.36c-3.52,2.83-6.35,4.26-8.52,4.26-1.58,0-2.99-.68-4.21-2.02-1.22-1.35-1.83-3.05-1.83-5.09,0-1.63.48-3.11,1.45-4.48.96-1.37,2.56-2.67,4.81-3.92,1.25-.7,4.01-1.9,8.3-3.62v14.87Zm9.07,3.79c-.42,0-.8-.15-1.13-.44-.32-.28-.55-.84-.7-1.67-.15-.84-.22-3.12-.22-6.84v-13.24c0-3.78-.25-6.26-.76-7.48-.8-1.88-2.03-3.26-3.71-4.14-2.22-1.16-5.06-1.74-8.52-1.74-4.52,0-8.02,1.03-10.52,3.07-2.5,2.05-3.75,4.29-3.75,6.73,0,1.28.33,2.28,1,3.02.67.74,1.53,1.1,2.59,1.1s1.95-.35,2.62-1.06c.67-.71,1-1.71,1-3.02l-.09-2.47c0-1.25.54-2.35,1.61-3.31,1.05-.97,2.47-1.45,4.26-1.45,2.35,0,4.16.73,5.39,2.17,1.23,1.45,1.84,4.13,1.84,8.01v1.54c-6.7,2.44-11.5,4.51-14.37,6.21-2.88,1.72-4.9,3.53-6.06,5.45-.86,1.4-1.28,3.04-1.28,4.94,0,3.01.87,5.44,2.62,7.28,1.74,1.85,3.97,2.78,6.67,2.78,1.73,0,3.36-.36,4.88-1.08,1.03-.48,3.55-2.27,7.54-5.36.03,2.33.45,3.98,1.28,4.94.83.97,1.93,1.45,3.31,1.45,2.91,0,5.94-2.14,9.11-6.4v-2.38c-1.7,1.7-2.85,2.75-3.44,3.11-.34.2-.74.3-1.19.3"></path><path class="cls-1" d="m148.72,57.32c1.86-1.83,3.97-2.75,6.32-2.75,1.53,0,2.99.46,4.4,1.37,1.41.92,2.47,2.17,3.17,3.75.47,1.02.76,2.78.9,5.28h-18.05c.3-3.26,1.4-5.81,3.26-7.64m17.63,26.57c-1.89,1.41-4.11,2.11-6.67,2.11-3.82,0-7.16-1.64-10-4.93-2.85-3.3-4.24-7.83-4.22-13.63h26.95c0-4.83-1.41-8.68-4.21-11.56-2.8-2.89-6.4-4.33-10.77-4.33-5.17,0-9.46,1.88-12.88,5.61-3.43,3.72-5.13,8.92-5.13,15.6,0,6.16,1.66,11.07,5,14.72,3.33,3.65,7.34,5.46,12.03,5.46,4.3,0,7.89-1.6,10.77-4.8,2.86-3.18,4.59-6.73,5.19-10.63l-1.32-.84c-1.28,3.4-2.85,5.81-4.74,7.21"></path></g></g></svg>