<svg xmlns="http://www.w3.org/2000/svg" id="Capa_2" data-name="Capa 2" viewBox="0 0 225.91 81.14"><defs><style>      .cls-1 {        fill: #464c51;      }    </style></defs><g id="Capa_1-2" data-name="Capa 1"><g><path class="cls-1" d="m72.69,51.97v-1.84c-1.76-.84-4.06-1.38-6.59-1.38-4.45,0-7.13,1.76-7.13,5.06v.15c0,2.76,2.3,4.45,5.67,4.45,4.75-.08,8.05-2.68,8.05-6.44m-23.76,2.38v-.15c0-7.97,6.06-11.65,14.72-11.65,3.68,0,6.36.61,8.89,1.53v-.61c0-4.29-2.68-6.67-7.82-6.67-3.99,0-6.75.77-10.12,1.99l-2.61-7.89c3.99-1.76,7.97-2.91,14.18-2.91,5.67,0,9.73,1.53,12.34,4.06,2.76,2.76,3.99,6.75,3.99,11.65v21.16h-9.96v-3.99c-2.53,2.76-5.98,4.6-11.04,4.6-6.9.08-12.57-3.91-12.57-11.11"></path><path class="cls-1" d="m84.18,60.02l4.45-6.82c3.99,2.84,8.12,4.37,11.5,4.37,2.99,0,4.37-1.07,4.37-2.76v-.15c0-2.22-3.53-2.99-7.59-4.22-5.14-1.53-10.88-3.91-10.88-10.96v-.15c0-7.44,5.98-11.57,13.34-11.57,4.6,0,9.66,1.53,13.64,4.22l-3.99,7.13c-3.6-2.15-7.21-3.37-9.89-3.37-2.53,0-3.83,1.07-3.83,2.53v.15c0,2.07,3.45,2.99,7.44,4.37,5.14,1.69,11.04,4.14,11.04,10.81v.15c0,8.12-6.06,11.8-13.95,11.8-5.14,0-10.81-1.76-15.64-5.52"></path><path class="cls-1" d="m115,46.76v-.15c0-10.42,7.97-19.01,19.16-19.01,6.9,0,11.19,2.3,14.56,6.13l-6.36,6.82c-2.3-2.45-4.6-3.99-8.28-3.99-5.21,0-8.89,4.6-8.89,9.96v.15c0,5.6,3.6,10.12,9.27,10.12,3.45,0,5.83-1.53,8.35-3.91l6.06,6.13c-3.53,3.91-7.66,6.67-14.95,6.67-10.88-.08-18.93-8.51-18.93-18.93"></path><path class="cls-1" d="m173.71,51.97v-1.84c-1.76-.84-4.06-1.38-6.59-1.38-4.45,0-7.13,1.76-7.13,5.06v.15c0,2.76,2.3,4.45,5.67,4.45,4.75-.08,8.05-2.68,8.05-6.44m-23.84,2.38v-.15c0-7.97,6.06-11.65,14.72-11.65,3.68,0,6.36.61,8.89,1.53v-.61c0-4.29-2.68-6.67-7.82-6.67-3.99,0-6.75.77-10.12,1.99l-2.61-7.89c3.99-1.76,7.97-2.91,14.18-2.91,5.67,0,9.73,1.53,12.34,4.06,2.76,2.76,3.99,6.75,3.99,11.65v21.16h-10.04v-3.99c-2.53,2.76-5.98,4.6-11.04,4.6-6.82.08-12.49-3.91-12.49-11.11"></path><path class="cls-1" d="m215.64,46.6v-.15c0-6.06-4.06-10.12-8.89-10.12s-8.89,3.99-8.89,10.12v.15c0,6.06,3.99,10.12,8.89,10.12s8.89-3.99,8.89-10.12m-28.05-18.32h10.35v5.21c2.53-3.37,5.98-5.9,11.34-5.9,8.51,0,16.63,6.67,16.63,18.86v.15c0,12.19-7.97,18.86-16.63,18.86-5.52,0-8.89-2.53-11.34-5.44v15.64h-10.35V28.28Z"></path><path class="cls-1" d="m1.02,0h5.06s1.84,6.59,7.74,11.19c0,0,4.68,3.83,13.11,9.81,0,0,12.26,9.43,14.64,17.17,0,0,2.07,8.05-4.91,22.69h-3.07s5.44-9.66,4.52-17.17c0,0-.08-6.98-10.58-15.18,0,0-8.12-5.67-14.41-6.29l14.26,44.07s3.83,11.73-8.89,14.41c0,0-15.48,3.37-18.4-8.89,0,0-1.61-8.28,8.2-11.27,0,0,4.29-1.38,11.88-.31L1.02,0Z"></path></g></g></svg>