<svg xmlns="http://www.w3.org/2000/svg" id="Capa_2" data-name="Capa 2" viewBox="0 0 336.06 47"><defs><style>      .cls-1 {        fill: #464c51;      }    </style></defs><g id="Capa_1-2" data-name="Capa 1"><g><path class="cls-1" d="m54.33,24.78c-16.86,0-33.72,0-50.59,0-.91,0-1.83-.03-2.73-.16-1.04-.15-1.29-.81-.7-1.7.14-.22.33-.41.52-.6,3.73-3.77,7.45-7.55,11.21-11.29,3.39-3.37,6.83-3.32,10.22.09.29.3.58.6.88.89,2.96,2.93,6.71,2.96,9.68,0,3.03-3.02,5.99-6.12,8.98-9.18.4-.41.79-.82,1.23-1.18,2.68-2.25,6.13-2.19,8.68.2,1.63,1.53,3.15,3.17,4.79,4.7,2.44,2.28,5.48,2.42,8.21.45.49-.36.96-.75,1.45-1.1,2.47-1.76,5.78-1.64,7.97.45,2.27,2.17,4.43,4.46,6.63,6.71,1.68,1.71,3.73,2.22,6.06,1.86.92-.14,1.75-.48,2.49-1.06.48-.37.95-.76,1.44-1.11,2.54-1.82,5.56-1.76,7.83.4,3.23,3.09,6.33,6.31,9.47,9.49.38.38.68.85.5,1.42-.19.59-.76.58-1.24.6-1.56.07-3.12.12-4.68.12-16.1,0-32.2,0-48.3,0h0Z"></path><path class="cls-1" d="m199.31,14c0,4.22,0,8.43,0,12.65,0,.79.01,1.59-.04,2.37-.09,1.3-.93,2.09-2.2,2.14-1.29.05-1.94-.52-2.16-1.96-.1-.67-.15-1.35-.15-2.03,0-6.22.01-12.44.03-18.66,0-.41.05-.83.09-1.24.1-.98.55-1.76,1.51-2.07,1.01-.32,1.84.07,2.51.88,3.8,4.61,7.77,9.09,11.45,13.8.69.88,1.36,1.79,2.23,2.56.33-.37.18-.76.18-1.11.01-4.45,0-8.9,0-13.35,0-.53-.02-1.06.21-1.55.37-.78.96-1.26,1.84-1.32.92-.06,1.62.3,2.07,1.12.35.65.43,1.35.43,2.08,0,6.56,0,13.12,0,19.68,0,.73-.1,1.43-.46,2.07-.7,1.24-2.22,1.5-3.3.56-.34-.3-.64-.65-.93-.99-4-4.84-7.99-9.69-11.98-14.53-.35-.42-.73-.83-1.09-1.24-.08.05-.16.09-.23.14Z"></path><path class="cls-1" d="m227.81,31.16c-1.2,0-2.61.04-4.02,0-1.64-.06-2.24-.64-2.41-2.25-.26-2.41-.14-4.82-.14-7.23,0-4.41,0-8.82.04-13.23.03-2.9.66-3.51,3.62-3.46,2.66.04,5.33-.15,7.98.13,5.74.6,10.36,4.83,11.57,10.6,1.07,5.1-1.8,10.93-6.61,13.68-3.08,1.76-6.41,1.99-10.03,1.79Zm-2.01-12.99s-.01,0-.02,0c0,2.53,0,5.05,0,7.58,0,.45-.08.98.63.94,2.28-.1,4.57.18,6.83-.28,3.96-.8,7.02-4.57,6.87-8.46-.16-4.13-3.7-8.01-7.75-8.35-1.81-.15-3.65-.04-5.47-.1-.84-.03-1.12.24-1.1,1.09.05,2.52.02,5.05.02,7.58Z"></path><path class="cls-1" d="m138.42,18.14c0-7.32,6.3-13.64,13.61-13.66,7.18-.02,13.22,6.25,13.21,13.69-.01,7.38-6.03,13.48-13.28,13.48-7.41,0-13.54-6.12-13.54-13.51Zm4.41-.04c-.05,4.82,4.03,8.94,8.92,9.01,5.08.07,8.87-3.61,8.94-8.68.07-5.14-3.74-9.28-8.63-9.38-5.04-.11-9.18,3.96-9.23,9.06Z"></path><path class="cls-1" d="m168.78,15.28c0-2.81,0-4.96,0-7.11,0-.68-.06-1.38.29-1.99.49-.85,1.23-1.35,2.26-1.16,1.1.2,1.85,1.04,1.88,2.24.05,2.34.01,4.67.05,7.01.04,2.52-.16,5.05.14,7.57.37,3.15,2.06,4.79,5.22,5.13,1.07.11,2.14.04,3.18-.15,2.83-.52,4.44-2.68,4.45-5.97.02-4.18,0-8.37,0-12.55,0-.53.04-1.05.19-1.56.32-1.07,1.05-1.65,2.15-1.71.97-.05,1.8.67,2.08,1.77.09.36.12.74.12,1.12,0,4.11.07,8.22-.01,12.33-.07,3.62-.91,7.01-4.1,9.26-4.74,3.34-12.35,2.71-15.81-2.06-1.23-1.71-1.78-3.64-1.98-5.69-.23-2.37-.09-4.75-.12-6.46Z"></path><path class="cls-1" d="m126.31,30.94c-3.75-.13-6.81-1.7-9.18-4.54-1.16-1.39-.46-3.18,1.23-3.49.92-.17,1.51.35,2.08.93,1.44,1.49,3.12,2.51,5.25,2.69,1.24.11,2.43-.06,3.55-.59,1.78-.85,2.1-2.96.65-4.31-.85-.79-1.91-1.22-2.99-1.6-2.08-.73-4.19-1.37-6.04-2.61-3.83-2.57-4.54-7.69-1.45-10.91,1.92-2,4.42-2.54,7.1-2.44,3.32.12,5.76,1.69,7.48,4.46.33.52.53,1.08.51,1.71-.04.89-.48,1.49-1.33,1.79-.83.29-1.59.18-2.18-.51-.34-.4-.62-.86-.94-1.28-1.48-1.94-5.61-2.39-7.46-.82-1.25,1.05-1.16,3.06.2,4.16,1.05.85,2.29,1.33,3.55,1.77,1.51.52,3.03,1,4.44,1.75,2.99,1.57,4.71,4.59,4.25,7.48-.5,3.15-2.92,5.5-6.34,6.13-.78.14-1.57.3-2.39.25Z"></path><path class="cls-1" d="m248.39,17.73c0-3.32,0-6.64,0-9.96,0-1.58.53-2.14,2.1-2.15,2.93-.02,5.86-.05,8.79.03,3.8.11,6.67,2.53,7.35,6.08.86,4.51-.71,7.87-4.49,9.43-.71.29-.72.46-.19.94,1.13,1.03,2.03,2.25,2.8,3.55.53.89,1.18,1.52,2.26,1.73.89.18,1.71.55,1.45,1.74-.25,1.1-1.09,1.22-2.02,1.19-1.61-.06-2.64-1.05-3.56-2.18-.38-.47-.68-1-1.02-1.5-1.39-2.05-3.09-3.72-5.49-4.58-.78-.28-1.31-.8-1.18-1.7.12-.85.72-1.17,1.51-1.27,1.28-.16,2.58-.17,3.83-.55,2.48-.76,3.52-2.37,3.31-5.21-.19-2.56-1.47-4.03-3.93-4.37-2.5-.34-5.01-.12-7.52-.11-.96,0-.77.76-.77,1.33,0,5.62,0,11.24,0,16.86,0,.57-.02,1.13-.04,1.7-.04.96-.51,1.61-1.5,1.68-.99.07-1.4-.63-1.55-1.48-.08-.44-.11-.9-.12-1.35,0-3.28,0-6.56,0-9.84Z"></path><path class="cls-1" d="m295.83,18.2c0-3.43-.02-6.86,0-10.29.02-1.89.39-2.26,2.28-2.27,4.53-.03,9.05-.02,13.58-.02,1.14,0,1.85.6,1.9,1.52.05,1.05-.55,1.66-1.83,1.67-3.88.03-7.76.03-11.64-.02-.92-.01-1.19.27-1.17,1.15.05,1.81.03,3.62-.02,5.43-.03.87.33,1.07,1.15,1.06,3.31-.04,6.62-.01,9.93,0,1.32,0,2.09.59,2.08,1.56,0,.99-.76,1.62-2.04,1.62-3.31.02-6.62.04-9.93-.01-.91-.01-1.19.27-1.17,1.15.04,1.85.03,3.69-.02,5.54-.02.8.27,1.03,1.06,1.03,3.99-.04,7.99-.03,11.98-.02,1.28,0,2.05.69,1.93,1.69-.1.9-.63,1.48-1.57,1.48-4.91,0-9.81.01-14.72-.04-1.35-.01-1.73-.47-1.74-1.82-.02-3.47,0-6.93,0-10.4-.02,0-.03,0-.05,0Z"></path><path class="cls-1" d="m272.71,18.01c0-3.36-.02-6.71,0-10.07.02-1.87.41-2.28,2.28-2.29,4.49-.04,8.98-.04,13.47-.02.83,0,1.72.12,1.92,1.19.24,1.27-.32,1.95-1.78,1.97-3.08.04-6.16.01-9.25.01-.88,0-1.75.03-2.63,0-.67-.02-.94.2-.92.93.05,1.85.06,3.7,0,5.54-.03.91.28,1.17,1.18,1.16,3.42-.04,6.85,0,10.27,0,.73,0,1.24.28,1.55.93.3.62.17,1.19-.21,1.7-.44.58-1.12.57-1.77.57-3.23,0-6.47.04-9.7-.03-1.06-.02-1.38.29-1.32,1.34.09,1.69.08,3.4,0,5.09-.05,1,.26,1.3,1.28,1.28,3.69-.06,7.38-.03,11.07-.03.38,0,.76.01,1.14.04.96.07,1.45.67,1.47,1.56.02.89-.45,1.54-1.43,1.58-1.33.05-2.66.02-3.99.02-3.46,0-6.93.01-10.39,0-1.84,0-2.28-.43-2.29-2.28-.02-3.39,0-6.79,0-10.18,0,0,.01,0,.02,0Z"></path><path class="cls-1" d="m11.66,27.11c3.53-.02,7.08-.24,10.58.43.07.01.15.02.23.01,4.7-.29,9.39.15,14.11-.32,5.18-.52,10.44-.48,15.62-.12,8.3.57,16.56-.37,24.84-.07,2.05.07,4.1.1,6.13.47,1.7.31,3.42.28,5.11-.04,2.43-.46,4.83-.45,7.25.03,2.17.44,4.32.17,6.46-.22,1.96-.36,3.86-.08,5.75.4.3.08.8.04.76.5-.03.37-.47.45-.8.54-1.81.52-3.69.74-5.53.38-2.85-.57-5.64-.51-8.48.02-1.77.33-3.58.2-5.33-.2-2.6-.6-5.13.1-7.7.25-5.96.33-11.94.42-17.89-.13-2.15-.2-4.25.06-6.37.15-7,.28-14,.42-20.98-.12-2.28-.18-4.52-.39-6.8-.07-.34.05-.69.05-1.02,0-2.46-.39-4.9-.12-7.37.1-5.8.51-11.62.43-17.44.05-.68-.04-1.35-.2-2.02-.34-.33-.07-.74-.2-.76-.58-.02-.42.44-.49.74-.57,1.22-.32,2.46-.5,3.72-.51,2.4-.02,4.79,0,7.19,0Z"></path><path class="cls-1" d="m318.22,18.18c0-3.43-.01-6.86,0-10.29,0-1.83.39-2.23,2.18-2.24,4.41-.02,8.82-.01,13.23,0,.45,0,.91.08,1.35.19.71.19,1.04.69,1.07,1.42.03.75-.36,1.21-1.03,1.45-.65.23-1.35.22-2.03.22-3.5,0-7,.04-10.49,0-.84,0-1.12.2-1.08,1.06.07,1.84.07,3.69,0,5.54-.03.91.19,1.24,1.18,1.22,2.74-.06,5.48-.02,8.21,0,.64,0,1.29.04,1.93.13.88.12,1.37.65,1.31,1.55-.05.87-.54,1.42-1.45,1.43-2.39.04-4.79.03-7.19.04-.99,0-1.98.08-2.96,0-.81-.07-1.06.17-1.04.97.04,2.41.02,4.82.02,7.24,0,.3.02.61-.02.9-.14.95-.72,1.53-1.68,1.51-.98-.02-1.5-.63-1.5-1.63,0-3.58,0-7.16,0-10.74,0,0-.01,0-.02,0Z"></path><path class="cls-1" d="m100.03,36.99c-.64.55-1.4.62-2.14.72-2.81.38-5.61.4-8.4-.18-1.67-.35-3.31-.3-4.97.09-1.07.25-2.17.33-3.28.33-4.57,0-9.13.02-13.7.03-2.66,0-5.29-.79-7.95-.46-7.21.88-14.44.32-21.65.45-2.01.04-4.03.09-6.03-.28-2.19-.4-4.43-.49-6.59-.15-3.83.6-7.66.38-11.49.41-1.26.01-2.5-.16-3.73-.43-.37-.08-.89-.07-.91-.51-.02-.53.57-.54.94-.6,1.32-.19,2.64-.45,3.96-.45,3.72,0,7.44-.19,11.15.47,2.19.38,4.48.29,6.7-.13,1.51-.28,3.01-.38,4.54-.37,5.94.01,11.87-.03,17.81.02,2.73.02,5.45.91,8.17.5,5.42-.81,10.86-.38,16.29-.51,1.95-.05,3.89-.02,5.79.43,2.57.62,5.06.03,7.58-.32,2.3-.32,4.55.03,6.8.38.39.06.8.19,1.13.55Z"></path><path class="cls-1" d="m104.47,32.52c-.65.48-1.4.55-2.13.68-3.41.58-6.83.3-10.23-.09-1.41-.16-2.81.07-4.2.04-7.15-.18-14.28.8-21.43.3-1.33-.09-2.67-.16-3.96-.43-2.19-.45-4.32.01-6.46.23-4,.4-7.98.26-11.95-.27-1.69-.23-3.34,0-4.99.27-2.69.43-5.39.4-8.08.14-2.47-.24-4.94-.26-7.41-.12-4.56.26-9.12.21-13.69.26-1.56.02-3.11-.21-4.64-.51-.34-.07-.78-.14-.77-.53,0-.44.49-.38.81-.42,1.17-.15,2.34-.39,3.51-.39,5.55.01,11.11-.29,16.65.34,1.75.2,3.5-.02,5.24-.19,3.35-.33,6.68-.22,10.01.2,2.28.28,4.56-.04,6.83-.24,3.36-.29,6.69-.05,10.02.19,1.9.14,3.78.14,5.69-.05,5.16-.51,10.33-.3,15.5-.17,5.62.14,11.25.35,16.87-.05,2.67-.19,5.32-.02,7.96.39.29.05.58.12.84.44Z"></path><path class="cls-1" d="m235.78,42.39c-.37.46-.74.93-1.11,1.39-.94,1.17-1.15,1.16-2.1-.05-.32-.42-.66-.82-1.01-1.22-.09-.1-.24-.15-.54-.32.24,1.26.26,2.37.18,3.47-.03.47.04,1.19-.72,1.18-.72,0-.76-.65-.76-1.18.01-1.96.05-3.91.1-5.87,0-.32-.06-.74.36-.88.43-.13.73.18.96.47.6.77,1.19,1.56,1.73,2.38.49.74.88.96,1.42.02.47-.81,1.06-1.56,1.6-2.33.27-.39.62-.68,1.14-.57.62.12.41.67.42,1,.02,2.03,0,4.06-.03,6.09,0,.35.05.82-.52.83-.57.01-.83-.35-.84-.86-.02-1.16,0-2.31,0-3.47-.09-.03-.18-.06-.27-.09Z"></path><path class="cls-1" d="m157.95,42.67c.03-2.23,1.82-3.93,4.13-3.93,2.23,0,4,1.9,3.96,4.24-.04,2.24-1.82,4.04-3.95,4.01-2.41-.04-4.17-1.88-4.15-4.32Zm4,2.77c1.54,0,2.62-1.1,2.6-2.66-.02-1.27-1.19-2.49-2.44-2.53-1.46-.05-2.7,1.14-2.72,2.6-.02,1.46,1.08,2.58,2.56,2.58Z"></path><path class="cls-1" d="m249.75,42.74c0-.9.04-1.81-.01-2.7-.06-.96.36-1.26,1.27-1.17.83.08,1.67.02,2.49.13,2.13.31,3.47,2.06,3.33,4.26-.13,1.95-1.68,3.43-3.74,3.53-.79.04-1.59.02-2.39.05-.67.02-.97-.28-.96-.94.02-1.05,0-2.1,0-3.15h0Zm1.47.06s-.03,0-.05,0c0,.6-.02,1.2,0,1.8.01.33.03.66.46.81,1.66.56,3.73-.95,3.66-2.68-.06-1.52-1.25-2.41-3.25-2.34-1.64.06-.41,1.36-.81,1.97-.07.1,0,.29,0,.44Z"></path><path class="cls-1" d="m149.28,42.71c0-1.02,0-2.04,0-3.05,0-.57.25-.81.83-.79.95.04,1.9.04,2.85.08,1.01.04,1.78.52,2.1,1.47.32.98.52,2.07-.32,2.88-.84.81-.67,1.31.15,1.96.35.28,1.3.47.67,1.21-.6.71-1.22.28-1.74-.25-.73-.76-1.38-1.59-2.33-2.14-.61-.35-.4-.84.18-1.09.38-.16.81-.2,1.22-.29.66-.15.97-.58.9-1.24-.07-.67-.35-1.14-1.16-1.07-.34.03-.69.02-1.02-.02-.78-.09-.95.24-.93.98.04,1.5-.02,3.01-.06,4.52-.01.39.07.9-.56.92-.63.02-.75-.44-.76-.91-.02-1.05,0-2.11-.01-3.17Z"></path><path class="cls-1" d="m259.36,42.71c0-1.02,0-2.03,0-3.05,0-.38-.05-.79.54-.78,1.44.02,2.89.02,4.33.05.48.01.97.18.92.77-.04.52-.52.58-.96.58-.84,0-1.67,0-2.51-.01-.67,0-.93.32-.92.99.01.66.35.85.93.85.72,0,1.45-.04,2.17,0,.45.03.96.13.93.76-.03.6-.47.71-.96.73-.65.01-1.29.03-1.94.02-.6,0-1.07.09-1.06.84.01.68.27,1.04,1.03.99.83-.05,1.67-.02,2.51,0,.43,0,.94.12.95.6.01.53-.46.73-.96.74-1.41,0-2.81,0-4.22.02-.59,0-.81-.24-.79-.82.03-1.09,0-2.19,0-3.28h0Z"></path><path class="cls-1" d="m208.2,42.74c0-1.06.01-2.11,0-3.17,0-.44.07-.72.61-.7,1.41.04,2.81.03,4.22.05.49.01.97.17.95.75-.02.61-.56.62-1.03.62-.72,0-1.45-.02-2.17-.02-.66,0-1.19.08-1.18.97.02.84.53.88,1.14.88.65,0,1.3-.04,1.94,0,.47.03.95.17.94.77-.01.59-.45.72-.95.73-.72,0-1.45.02-2.17.03-.57,0-.85.27-.81.84.03.52.09.99.81.97.87-.02,1.75-.01,2.62,0,.48,0,1.01.1.99.68-.02.55-.51.67-1.01.68-1.37,0-2.74,0-4.11.03-.57,0-.82-.22-.81-.8.03-1.09,0-2.19,0-3.28Z"></path><path class="cls-1" d="m272.48,42.68c0-1.02,0-2.03,0-3.05,0-.47.11-.8.7-.77,1.4.06,2.81.08,4.21.13.43.02.91.11.88.67-.03.54-.52.59-.94.6-.72.03-1.44.06-2.16.03-.76-.02-1.31,0-1.26,1.05.05,1.02.68.77,1.25.77.53,0,1.07-.04,1.59,0,.47.05,1.07.06,1.06.75-.01.68-.55.72-1.07.72-.65,0-1.3.06-1.93,0-.74-.07-.89.26-.89.91,0,.63.1.99.87.94.91-.06,1.82-.02,2.73,0,.44.01.87.14.82.71-.04.45-.38.61-.81.61-1.4,0-2.81,0-4.21.02-.72.02-.81-.46-.82-.96-.03-1.05,0-2.11,0-3.16,0,0-.01,0-.02,0Z"></path><path class="cls-1" d="m243.33,44.95c-.9-.25-1.63.1-2.02,1.19-.15.43-.5.82-1.06.55-.51-.24-.39-.68-.2-1.07.96-2,1.89-4.02,2.91-5.99.54-1.03.93-1.03,1.46-.02.98,1.86,1.9,3.76,2.82,5.66.24.5.53,1.24-.05,1.5-.57.26-1.08-.27-1.36-.9-.43-.96-.45-.95-2.51-.93Zm.44-1.44c.32-.09.82.03.75-.57-.08-.61-.49-.93-1.07-.95-.52-.02-.52.41-.56.79-.07.68.43.66.88.72Z"></path><path class="cls-1" d="m180.55,44.95c-.88-.17-1.73.02-2.12,1.21-.14.44-.52.94-1.13.63-.51-.26-.39-.76-.21-1.2.88-2.12,1.98-4.14,3.04-6.18.4-.77.9-.61,1.24.04,1.03,2.01,2.04,4.03,3,6.07.19.41.33,1.09-.17,1.32-.47.21-.88-.27-1.15-.7q-.76-1.21-2.49-1.19Zm.21-1.42c.34-.12.93.08.89-.57-.03-.52-.33-.94-.91-.97-.53-.03-.83.25-.88.8-.06.68.44.67.9.73Z"></path><path class="cls-1" d="m47.06,42.16c-2.12-.01-4.25.06-6.35-.33-.42-.08-1.04-.08-1.05-.64,0-.65.67-.51,1.07-.56,4.46-.55,8.92-.6,13.37.05.38.06.87.09.87.54,0,.45-.52.48-.88.56-2.32.51-4.68.36-7.03.39Z"></path><path class="cls-1" d="m219.14,38.8c.81.03,1.58.2,2.21.75.34.3.53.69.26,1.1-.26.4-.66.28-1.02.1-.55-.27-1.1-.5-1.74-.39-.34.06-.71.08-.78.51-.08.43.12.74.51.9.59.24,1.21.44,1.8.69,1.12.46,1.82,1.52,1.7,2.53-.12,1.05-.88,1.74-2.2,1.92-1.05.14-2.04-.08-2.93-.64-.47-.3-.71-.77-.47-1.26.31-.61.8-.17,1.16,0,.7.35,1.41.55,2.19.45.36-.04.69-.14.76-.55.06-.37-.08-.7-.42-.85-.59-.26-1.2-.45-1.79-.69-1.4-.55-2.05-1.48-1.85-2.62.22-1.29,1.13-1.97,2.62-1.97Z"></path><path class="cls-1" d="m287.94,46.11c-.05.25,0,.57-.28.7-.35.16-.55-.12-.76-.34-.03-.03-.06-.05-.07-.09-.65-2.06-2.38-1.35-3.78-1.43-.43-.03-.7.24-.86.61-.11.24-.19.5-.33.71-.24.34-.51.72-1.01.49-.5-.23-.45-.66-.27-1.06.34-.79.7-1.58,1.08-2.35.63-1.28,1.27-2.56,1.91-3.84.3-.59.82-.88,1.19-.22,1.19,2.09,2.22,4.26,3.15,6.48.04.1.03.22.04.34Zm-3.68-2.62c.37-.08.97.05.84-.6-.08-.37.01-1.05-.62-1.02-.58.02-.94.51-1.01,1.06-.06.54.41.53.79.55Z"></path><path class="cls-1" d="m292.98,38.81c.86.03,1.67.18,2.27.85.22.25.44.55.21.91-.25.4-.62.4-1,.21-.65-.33-1.3-.61-2.06-.39-.31.09-.56.24-.62.58-.05.34.12.61.41.74.51.23,1.06.4,1.59.6.87.33,1.63.78,1.94,1.75.36,1.14-.13,2.25-1.26,2.66-1.3.47-2.54.31-3.7-.43-.45-.28-.76-.69-.48-1.23.35-.69.78-.15,1.13.02.7.35,1.42.51,2.2.41.34-.04.73-.05.84-.46.11-.41-.11-.73-.42-.98-.55-.44-1.26-.5-1.89-.73-1.2-.43-1.75-1.17-1.74-2.35,0-1.41.94-2.2,2.58-2.18Z"></path><path class="cls-1" d="m70.17,42.17c-2-.06-3.93-.16-5.84-.5-.35-.06-.87-.08-.81-.59.05-.41.53-.33.85-.38,3.67-.56,7.33-.55,11,0,.35.05.89-.02.92.45.04.52-.54.44-.87.52-1.74.43-3.54.37-5.25.5Z"></path><path class="cls-1" d="m196.81,43.24c0-.3,0-.6,0-.9,0-.6.21-1.31-.04-1.77-.31-.55-1.12-.18-1.7-.29-.39-.07-.64-.17-.61-.63.02-.43.16-.74.65-.74,1.67,0,3.35,0,5.02.02.36,0,.69.15.68.6,0,.45-.3.62-.7.76-.57.2-1.43-.39-1.7.46-.17.54,0,1.19-.01,1.8,0,1.13,0,2.26-.03,3.39-.01.44-.07.99-.69.97-.52-.02-.79-.45-.81-.94-.03-.9,0-1.81,0-2.71h-.04Z"></path><path class="cls-1" d="m170.95,44.83c.18-.84-.21-1.63-.76-2.39-.52-.73-1.01-1.49-1.48-2.27-.23-.39-.45-.9.06-1.2.49-.29.86.13,1.13.49.47.63.92,1.29,1.34,1.96.35.56.64.54.98,0,.4-.64.79-1.28,1.25-1.87.26-.33.56-.83,1.11-.5.6.36.31.84.04,1.26-.32.51-.63,1.03-.99,1.51-.79,1.06-1.24,2.18-1.12,3.54.05.56.21,1.46-.8,1.41-.97-.04-.68-.89-.75-1.48-.01-.11,0-.23,0-.46Z"></path><path class="cls-1" d="m300.86,44.84c.29-.94-.39-1.67-.9-2.46-.49-.76-.99-1.51-1.43-2.3-.2-.35-.32-.85.11-1.12.44-.27.8.06,1.05.4.49.67,1,1.33,1.4,2.06.36.65.62.51.94.03.44-.66.85-1.33,1.33-1.96.26-.35.61-.77,1.14-.4.54.38.21.8-.03,1.18-.35.58-.7,1.17-1.1,1.71-.8,1.1-1.3,2.26-1.13,3.67.05.44.26,1.16-.64,1.14-.8-.02-.7-.64-.74-1.15-.02-.22,0-.45,0-.79Z"></path><path class="cls-1" d="m187.21,42.93c0-.98-.01-1.95,0-2.93,0-.48-.04-1.07.67-1.1.75-.03.67.57.67,1.05.02,1.5.05,3.01.01,4.51-.02.75.26,1.01.99.98.79-.04,1.59.01,2.39.01.46,0,.7.18.71.67,0,.5-.28.65-.72.66-1.29.02-2.58.03-3.87.06-.71.02-.92-.33-.9-.97.03-.98,0-1.95,0-2.93.01,0,.02,0,.03,0Z"></path><path class="cls-1" d="m204.96,42.94c0,.98.02,1.96,0,2.94-.01.45-.07,1-.65,1.02-.56.03-.77-.47-.79-.94-.11-2.11-.14-4.22.04-6.33.03-.35.04-.77.61-.77.55,0,.76.33.77.78.03,1.09,0,2.19,0,3.28,0,0,.02,0,.03,0Z"></path><path class="cls-1" d="m17.39,40.4c.73-.01,1.63.12,2.52.32.28.06.67.1.68.48.01.34-.35.34-.59.41-1.97.62-3.96.54-5.94.06-.27-.07-.66-.11-.61-.53.04-.31.36-.36.61-.42,1.04-.24,2.08-.39,3.34-.33Z"></path></g></g></svg>