<svg xmlns="http://www.w3.org/2000/svg" id="Capa_2" data-name="Capa 2" viewBox="0 0 214.94 94.01"><defs><style>      .cls-1 {        fill: #464c51;      }    </style></defs><g id="Capa_1-2" data-name="Capa 1"><g><path class="cls-1" d="m79.04,33.56c0,1.59,1.3,2.58,3.39,2.58,3.01,0,5.98-1.99,6.49-4.34l.32-1.44h-5.85c-3.21,0-4.35,1.65-4.35,3.2Z"></path><path class="cls-1" d="m142.38,21.57c-2.65,0-4.93,1.52-6.26,4.18l-.27.54h11.55l-.06-.39c-.4-2.75-2.21-4.33-4.96-4.33Z"></path><path class="cls-1" d="m214.3,0H51.29c-6.76,0-12.51,4.94-13.53,11.62l-9.67,60.56c-5.02-2.4-13.83-.73-20.66,4.15C.02,81.64-2.24,88.72,2.44,92.17c4.68,3.45,14.51,1.93,21.95-3.39,4.22-3.02,6.76-6.63,7.3-9.81l2.18-12.14c.78-5.31,5.34-9.25,10.71-9.25h150.57c6.45,0,12.47-5.22,13.37-11.61L214.93.72c.06-.4-.22-.72-.63-.72ZM58.99,25.56l2.87.91c4.35,1.33,6.21,3.35,6.21,6.76,0,4.77-4.17,7.84-10.61,7.84h0c-5.68,0-9.76-2.35-10.93-6.28l-.04-.16,6.85-1.39.04.13c.65,2.01,2.84,2.73,4.51,2.73,2.25,0,3.44-1.15,3.44-2.29,0-1.2-1.27-1.67-2.52-1.98l-3.6-1.1c-3.64-1.02-5.49-3.18-5.49-6.42,0-4.85,4-7.98,10.18-7.98,5.29,0,9.26,2.36,10.36,6.15l.04.15-6,1.38-.04-.13c-.54-1.71-2.28-2.77-4.56-2.77-2.88,0-3.1,1.71-3.1,2.24,0,1.02.76,1.73,2.38,2.23Zm37.75.71l-3.24,14.08h-6.68l.54-2.22-.72.51c-2.25,1.61-4.81,2.42-7.6,2.42-4.49,0-7.17-2.27-7.17-6.07,0-5.29,4.69-8.7,11.95-8.7h6.23l.2-.87c.26-1.08.11-2.02-.44-2.71-.59-.74-1.59-1.14-2.89-1.14-2.18,0-4.01,1.08-5,2.95l-6.1-1.58c2.12-4.09,6.72-6.64,12.01-6.64,3.59,0,6.3,1.02,7.83,2.95,1.37,1.72,1.74,4.14,1.07,7.02Zm11.57,7.12c.93,1.08,2.31,1.64,4,1.64,2.51,0,4.6-1.36,5.74-3.73l.05-.1,6.42,1.09-.07.17c-2.18,5.23-7.24,8.6-12.9,8.6-3.73,0-6.9-1.3-8.93-3.67-1.92-2.25-2.66-5.24-2.12-8.66,1.12-7.09,7.47-12.43,14.77-12.43,5.61,0,9.79,3.41,10.38,8.48l.02.14-6.85,1.27-.02-.15c-.34-2.32-2.05-3.7-4.58-3.7-3.52,0-6.4,2.59-7.01,6.3-.28,1.91.11,3.6,1.1,4.75Zm44.84-3.2l-.02.13h-17.89l.02.35c.16,3.14,2.02,4.95,5.11,4.95,2.28,0,4.09-.94,5.4-2.79l6.02,1.48c-2.35,4.3-6.68,6.77-11.89,6.77-6.74,0-11.09-4.2-11.09-10.71,0-7.75,6.35-14.05,14.15-14.05,3.32,0,6.07,1.16,7.93,3.36h0c2.13,2.52,2.92,6.16,2.27,10.52Zm45.99-4.58l-3.43,14.75h-6.92l3.01-12.97c.34-1.48.15-2.79-.55-3.67-.61-.77-1.56-1.18-2.73-1.18-2.98,0-5.29,2.12-6.34,5.81l-2.76,12.02h-6.97l3.01-12.97c.34-1.48.15-2.78-.55-3.65-.62-.78-1.58-1.19-2.78-1.19-3.07,0-5.38,2.31-6.34,6.33l-2.67,11.5h-6.92l5.34-23.33h6.97l-.65,2.84.81-.84c1.78-1.83,4-2.72,6.79-2.72,3.55,0,6.19,1.48,7.24,4.05l.21.52.35-.44c2.18-2.74,5.05-4.13,8.53-4.13,2.66,0,4.86.92,6.19,2.6,1.35,1.7,1.74,4.01,1.13,6.69Z"></path></g></g></svg>