<svg xmlns="http://www.w3.org/2000/svg" id="Capa_2" data-name="Capa 2" viewBox="0 0 186.12 39.81"><defs><style>      .cls-1 {        fill: #464c51;        fill-rule: evenodd;      }    </style></defs><g id="Capa_1-2" data-name="Capa 1"><g><path class="cls-1" d="m4.31,30.93c1.85,2.78,5.07,4.07,8.18,4.07,3.44,0,7.69-2.14,7.69-6.32,0-8.72-19.03-3.32-19.03-18.09C1.15,6.15,4.96,0,14.23,0c4.2,0,8.23.86,11.13,4.34l-4.25,3.8c-1.31-1.98-3.87-3.32-6.87-3.32-5.78,0-7.52,3.42-7.52,5.78,0,9.58,19.03,3.85,19.03,17.5,0,7.33-6,11.72-13.41,11.72-4.96,0-9.71-1.66-12.32-5.24l4.31-3.64m59.52-11.02c0-8.29-5.63-15.09-14.32-15.09s-14.33,6.8-14.33,15.09,5.63,15.09,14.33,15.09,14.33-6.8,14.33-15.09Zm-34.13,0C29.7,8.67,37.91,0,49.5,0s19.8,8.67,19.8,19.9-8.21,19.9-19.8,19.9-19.8-8.67-19.8-19.9Z"></path><path class="cls-1" d="m101.86,9.15c-2.13-2.78-5.65-4.33-9.11-4.33-8.47,0-14.06,6.8-14.06,15.41,0,7.97,5.27,14.77,14.06,14.77,4.32,0,7.62-1.93,9.85-5.08l4.31,3.26c-1.12,1.55-5.65,6.63-14.27,6.63-11.98,0-19.39-10.06-19.39-19.58,0-11.77,8.04-20.23,19.65-20.23,4.95,0,10.17,1.87,13.21,5.89l-4.26,3.26"></path><path class="cls-1" d="m134.84,25.98l-7.07-17.36h-.11l-7.18,17.36h14.36,0ZM125.62,1.99h4.66l16.24,37.82h-6l-3.81-9.35h-18.06l-3.75,9.35h-6L125.62,1.99Zm26.84,0h6.91l21.38,31.09h.11V1.99h5.27v37.82h-6.69l-21.6-31.09h-.11v31.09h-5.26V1.99"></path></g></g></svg>