<svg xmlns="http://www.w3.org/2000/svg" id="Capa_2" data-name="Capa 2" viewBox="0 0 151.97 111.78"><defs><style>      .cls-1 {        fill: #464c51;      }    </style></defs><g id="Capa_1-2" data-name="Capa 1"><g><path class="cls-1" d="m39.38,65.24c-.91,0-1.7.41-2.28,1.06-.87.94-1.35,2.38-1.35,3.92,0,.94.24,1.75.79,2.24.38.36.91.58,1.59.58.77,0,1.46-.34,2-.86.96-.94,1.56-2.53,1.56-4.11.02-.94-.17-1.71-.65-2.21-.38-.38-.92-.63-1.66-.63Z"></path><path class="cls-1" d="m37.57,27.35h-5.86v10h6.8c3.18,0,5.48-1.87,5.48-5s-2.07-5-6.42-5Z"></path><path class="cls-1" d="m147.4,25.81S133.02,5.8,80.51.61C33.92-3.98-12.65,17.66,3.14,54.1c7.91,22.05,28.04,63.54,58.11,57,12.46-2.71,20.61-12.69,30-20.32,10.62-8.66,21.57-13.68,32.99-21.21,0,0,41.21-21.74,23.16-43.74Zm-114.52,39.38h-2.16c-.84,5.14-1.51,11.42-5.26,14.23l-1.16-1.23c2.93-2.65,3.49-6.87,4.5-12.99h-1.61l.22-1.63h1.52l.27-1.37c.6-3.13,2.65-3.92,4.26-3.92.79,0,1.56.15,2.29.6l-.8,1.58c-.43-.29-.91-.48-1.52-.48-1.06,0-1.92.72-2.24,2.38l-.24,1.22h2.57l-.65,1.63Zm8.78,8.01c-.99.92-2.24,1.46-3.66,1.46s-2.36-.41-3.01-1.06c-.84-.86-1.2-2.09-1.2-3.42,0-1.99.7-3.8,1.92-5.02.96-.99,2.31-1.59,3.87-1.59,1.37,0,2.36.43,3.01,1.13.79.84,1.13,2,1.13,3.29-.02,2.17-.77,4.04-2.05,5.22Zm-3.94-30.32h-6.01v11.11c0,.62-.5,1.11-1.11,1.11h-4.07c-.62,0-1.11-.5-1.11-1.11v-31.04c0-.62.5-1.11,1.11-1.11h12.77c7.09,0,11.25,4.21,11.25,10.07,0,7.48-5,9.21-6.59,9.81,0,0-3.12,1.08-6.23,1.16Zm14.6,22.94c-.29-.15-.7-.22-1.03-.22-1.08,0-2.36,1.08-3.22,5.08l-.8,3.82h-1.97l2.29-10.63h1.56l-.31,2.16h.02c.7-1.51,1.61-2.41,3.01-2.41.58,0,1.03.15,1.4.41l-.96,1.8Zm2.19-11.83v-31.04c0-.62.48-1.11,1.1-1.11h12.69c7.07,0,11.23,4.19,11.23,10.03,0,7.48-5,9.21-6.59,9.81l6.54,11.78c.09.15.15.34.15.51,0,.62-.5,1.11-1.11,1.11h-4.74c-.43-.02-.79-.26-.96-.6l-6.11-11.64h-5.94v11.15c0,.62-.5,1.11-1.11,1.11h-4.06v-.02c-.6,0-1.08-.5-1.08-1.1Zm13.83,19.57c0,.34-.26.6-.6.6h-1.32c-.31-.02-.56-.27-.56-.58v-6.03c0-.43,0-.87.03-1.28h-.03c-.12.33-.53.94-.74,1.25l-2.04,3.13c-.1.15-.27.26-.48.26h-.55c-.19,0-.34-.1-.45-.24l-2.29-3.24c-.22-.33-.51-.69-.75-1.16h-.03c.02.45.02.87.02,1.22v6.11c0,.33-.26.58-.58.58h-1.32c-.33,0-.58-.27-.58-.58v-10.8c0-.33.26-.58.58-.58h1.4c.21,0,.38.12.48.27l2.94,4.21c.36.48.62.91.87,1.34h.02c.21-.43.46-.87.82-1.42l2.69-4.14c.1-.17.29-.27.5-.27h1.39c.33,0,.58.26.58.58v10.79Zm12.93-10.79v6.73c0,1.44-.39,2.64-1.22,3.46-.89.89-2.17,1.39-3.99,1.39s-3.06-.39-3.92-1.23c-.8-.79-1.18-1.95-1.18-3.36v-6.99c0-.33.26-.58.58-.58h1.32c.33,0,.58.26.58.58v6.78c0,.87.27,1.51.67,1.95.45.5,1.16.75,2,.75.96,0,1.64-.26,2.09-.75.41-.43.6-1.06.6-1.85v-6.88c0-.33.26-.58.58-.58h1.34c.33,0,.58.26.58.58h-.03Zm5.36,11.56c-1.42,0-2.5-.39-3.32-.84l-.02-.02c-.17-.1-.27-.27-.27-.48,0-.1.02-.19.05-.26l.41-.77c.1-.19.29-.33.51-.33.1,0,.19.03.26.07h.02c.63.36,1.39.63,2.24.63s1.85-.33,1.85-1.23c0-1.59-2.89-1.87-4.35-3.51-.46-.53-.77-1.2-.77-2.12,0-1.81,1.42-3.41,4.06-3.41,1.06,0,1.97.22,2.64.53.21.09.36.29.36.53v.02l-.02.86v.03c-.02.31-.27.55-.58.55-.07,0-.15-.02-.22-.05-.68-.31-1.34-.48-2.05-.48-.89,0-1.58.41-1.58,1.1,0,2.07,5.12,1.88,5.15,5.63,0,2.19-1.92,3.54-4.37,3.54Zm9.07-11.54v10.8c0,.33-.27.58-.58.58h-1.32c-.31-.02-.56-.27-.56-.58v-10.8c0-.33.26-.58.58-.58h1.32c.33,0,.58.26.58.58h-.02Zm11.95,10.62c-1.23.68-2.41.96-3.61.96-3.9,0-6.11-2.67-6.11-6.04s2.59-6.21,6.66-6.21c1.03,0,1.99.17,2.74.46.22.07.38.27.38.53l-.02.92c-.02.31-.26.56-.58.56-.05,0-.12-.02-.17-.03h-.03c-.77-.33-1.51-.45-2.23-.45-2.81,0-4.04,1.95-4.04,4.02,0,2.28,1.47,4.07,3.84,4.07.89,0,1.68-.21,2.43-.55.07-.03.14-.05.22-.05.24,0,.45.15.53.36l.27.7c.02.07.03.14.03.21,0,.22-.12.39-.31.53Zm-11.37-17.51c-5.12,0-10.41-2.07-13.68-6.08-.02-.02-.03-.03-.03-.05-.12-.17-.21-.39-.21-.63,0-.38.19-.7.46-.91v-.02l3.51-2.53c.17-.14.39-.21.63-.21.33,0,.62.15.82.38,0,.02.02.02.02.02,2.33,2.89,5.7,4.23,9.43,4.23,3.05,0,7.05-1.03,7.05-4.25,0-2.62-2.43-3.37-6.87-4.4l-3.68-.84c-5.31-1.22-9.98-3.18-9.98-9.3,0-7,6.68-10.36,12.89-10.36,5.29,0,9.74,1.83,13.11,5.75t.02.03c.15.19.26.43.26.7,0,.34-.15.65-.41.86v.02l-3.27,2.48c-.19.15-.43.26-.7.26-.38,0-.7-.17-.91-.46-1.71-2.43-4.54-3.82-8.13-3.82-3.6.02-6.3,1.37-6.3,3.7,0,2.76,3.13,3.41,6.87,4.25l4.06.89c4.95,1.08,9.6,3.1,9.59,9.35,0,8.13-7.65,10.94-14.55,10.94Z"></path><path class="cls-1" d="m72.99,32.34c0-3.03-2.05-5-6.39-5h-5.86v10h6.78c3.17,0,5.48-1.87,5.46-5Z"></path></g></g></svg>